<svg width="124" height="281" viewBox="0 0 124 281" fill="none" xmlns="http://www.w3.org/2000/svg">
<path d="M89.7736 156.905C89.5261 157.325 89.3634 157.819 89.3008 158.343C88.1886 163.411 87.4224 168.599 87.011 173.844C86.416 180.189 86.3947 186.582 86.0175 192.941C85.7838 196.933 85.2897 200.876 84.8487 204.826C84.1156 211.414 83.4833 218.016 82.9202 224.638C82.2614 232.365 81.7301 240.098 81.2414 247.846C81.1351 249.553 80.9651 251.275 80.9598 252.99C80.9475 254.834 80.4484 256.617 79.5466 258.036C78.99 259.022 78.3341 259.904 77.5969 260.66C76.1518 262.049 74.9405 261.625 74.2711 259.459C73.6439 257.218 73.2213 254.888 73.012 252.517C72.4871 247.223 72.2227 241.89 72.2204 236.551C72.1567 226.499 72.3462 216.458 72.7889 206.43C73.1395 198.335 73.6921 190.269 74.3827 182.216C74.6324 179.124 74.7601 176.016 74.7652 172.907C74.813 166.583 74.9086 160.252 74.8821 153.92C74.8289 141.217 74.6377 128.506 74.2233 115.809C74.2495 115.186 74.1432 114.566 73.9163 114.017C73.6894 113.468 73.3507 113.012 72.9376 112.699C70.1945 110.458 67.7518 107.644 65.7071 104.369C64.2886 102.071 62.9604 99.6688 62.817 96.5588C62.7479 95.0663 62.7585 93.5668 62.7426 92.0673C62.7426 91.3731 62.7426 90.6789 62.6788 89.9847C62.6416 92.4075 61.7969 94.3235 60.6494 96.1284C57.6143 100.857 54.0942 105.015 50.1887 108.485C49.8341 108.761 49.5464 109.162 49.3584 109.642C49.1705 110.123 49.0899 110.662 49.1261 111.199C49.1793 117.697 49.0996 124.195 49.1633 130.693C49.259 140.46 49.3705 150.227 49.599 159.995C49.8487 170.692 50.279 181.39 50.5659 192.094C50.72 197.919 50.5128 203.743 50.3374 209.567C49.9833 222.063 49.3971 234.524 48.5789 246.95C48.1964 252.983 47.7927 259.008 47.3092 264.999C47.1604 266.846 47.5483 268.644 47.6492 270.463C47.8058 273.015 47.6261 275.584 47.118 278.057C47.0202 278.701 46.7895 279.298 46.4508 279.784C46.1122 280.269 45.6785 280.624 45.1966 280.81C44.7147 280.997 44.2029 281.008 43.7166 280.842C43.2303 280.676 42.788 280.34 42.4375 279.869C40.9409 278.226 39.5332 276.449 38.2245 274.551C37.0929 272.892 35.9932 271.198 34.8669 269.539C34.3901 268.832 34.0273 268.006 33.8 267.112C33.5727 266.217 33.4856 265.272 33.544 264.333C33.6609 260.452 33.6821 256.565 33.6928 252.677C33.7246 241.903 33.7388 231.129 33.7353 220.355C33.7353 213.698 33.6556 207.034 33.5653 200.376C33.4519 192.661 33.3085 184.949 33.1349 177.239C33.034 172.581 32.8427 167.929 32.6886 163.271C32.6886 162.952 32.7311 162.577 32.5558 162.313C32.0582 162.58 31.633 163.036 31.3348 163.621C31.0366 164.206 30.8791 164.894 30.8823 165.597C30.8239 166.812 30.8398 168.034 30.8558 169.255C30.9779 178.28 30.8558 187.242 30.6645 196.232C30.4945 204.167 30.3192 212.094 30.0642 220.022C29.8092 227.839 29.4745 235.648 29.1291 243.458C28.8157 250.664 28.4438 257.863 28.1038 265.062C28.0548 265.971 27.8692 266.86 27.5574 267.676C27.2456 268.491 26.8139 269.219 26.2868 269.817C24.2601 272.196 21.96 274.145 19.4706 275.593C16.8456 277.167 14.1205 278.44 11.3263 279.397C10.5878 279.654 9.89186 279.82 9.34997 278.925C8.80807 278.029 9.1109 277.155 9.45091 276.28C10.3949 273.668 11.5113 271.169 12.7873 268.81C14.4236 265.957 14.9549 262.75 15.1355 259.314C15.603 250.338 15.7093 241.348 15.5871 232.358C15.4436 222.424 15.1939 212.497 15.008 202.57C14.9017 197.192 14.8167 191.81 14.753 186.423C14.6573 179.155 14.5989 171.879 14.4927 164.611C14.2695 149.734 14.3386 134.851 14.3226 119.974C14.3226 118.975 14.2642 117.968 14.3226 116.975C14.3877 116.466 14.3179 115.943 14.1247 115.492C13.9315 115.041 13.6265 114.69 13.2601 114.497C9.63964 111.895 6.41183 108.453 3.73444 104.341C2.76064 102.807 1.87289 101.183 1.07809 99.4814C0.18522 97.6219 -0.140874 95.3922 0.164323 93.2336C1.38128 83.0333 3.25989 72.9868 5.77985 63.2026C6.96458 58.5098 8.31401 53.9003 9.70062 49.3186C10.3149 47.2986 11.3559 45.5483 12.7023 44.2717C15.4543 41.5574 18.5888 39.8775 21.8189 38.4613C22.2937 38.2199 22.7822 38.0273 23.2799 37.8851C23.9546 37.7324 24.0555 37.1909 24.0077 36.4551C23.6199 29.8741 23.2692 23.2653 22.8602 16.7051C22.5845 13.7164 22.9086 10.6852 23.8005 7.90961C25.5165 3.00856 29.8517 0.0304734 33.7618 1.07871C35.5772 1.54842 37.1826 2.91951 38.2404 4.90376C39.3133 6.84136 40.1585 8.97765 40.748 11.2418C42.0974 16.3511 43.1016 21.5576 42.9315 27.0279C42.8884 28.2521 42.6947 29.4593 42.3578 30.603C42.1626 31.4292 41.82 32.1829 41.3581 32.802C40.8963 33.4212 40.3284 33.8881 39.7014 34.1642C39.5234 34.2044 39.3532 34.2903 39.2008 34.417C39.0483 34.5438 38.9166 34.7088 38.8134 34.9025C38.7101 35.0962 38.6372 35.3148 38.5991 35.5455C38.5609 35.7763 38.5582 36.0147 38.591 36.2468C38.6282 36.968 38.6282 37.6916 38.591 38.4127C38.591 39.1069 38.7876 39.3846 39.3189 39.461C41.0931 39.7134 42.8485 40.1544 44.5678 40.7799C48.0476 42.0156 51.2937 43.8691 54.0032 47.0833C55.1889 48.4419 56.0796 50.1851 56.5852 52.1371C58.7103 60.3911 60.6972 68.7076 61.8979 77.2948C62.3231 80.5113 62.6139 83.7557 62.7691 87.0136C62.7691 87.3191 62.716 87.6662 62.9657 87.9785C63.6776 79.8634 65.1652 72.012 66.7431 64.1744C66.8416 63.6918 66.9213 63.2029 66.9821 62.7097C67.864 55.0735 71.1366 49.3672 75.4824 44.5494C77.2365 42.6096 79.1847 40.991 81.2733 39.7386C81.5875 39.58 81.8613 39.309 82.0632 38.9567C82.2652 38.6044 82.3873 38.1849 82.4155 37.7463C82.4633 37.3089 82.5536 36.8785 82.6068 36.4412C82.7661 35.0528 82.6705 33.8934 81.6664 32.9702C80.8287 32.1187 80.0629 31.153 79.382 30.0893C77.4906 27.3125 76.8106 24.022 77.6606 20.4885C78.7315 15.7925 80.4828 11.409 82.8193 7.5764C83.5899 6.31672 84.4952 5.20853 85.5075 4.28591C86.5488 3.29468 87.807 2.76874 89.0952 2.78625C90.3835 2.80375 91.6331 3.36379 92.6584 4.38311C96.032 7.68055 97.2911 12.2692 96.8235 17.5729C96.4145 22.2032 95.931 26.8196 95.8035 31.4569C95.7414 33.4548 95.8393 35.4557 96.0957 37.4269C96.2649 38.7497 96.7861 39.9519 97.5673 40.8216C99.9498 43.4944 102.547 45.822 105.313 47.7636C105.977 48.2634 106.657 48.7215 107.321 49.2144C111.38 52.1243 114.597 56.6913 116.481 62.2168C119.487 70.6309 121.706 79.488 123.089 88.5963C123.422 90.8297 123.65 93.0878 123.77 95.3578C123.851 97.3143 123.386 99.243 122.463 100.786C120.833 103.572 118.871 105.996 116.651 107.964C114.265 110.196 111.702 112.083 109.006 113.594C108.631 113.75 108.31 114.071 108.098 114.504C107.887 114.936 107.798 115.452 107.847 115.962C107.816 121.675 107.677 127.395 107.661 133.108C107.619 147.918 107.603 162.744 107.614 177.586C107.614 191.525 107.677 205.465 107.688 219.404C107.688 227.339 107.646 235.28 107.603 243.222C107.525 245.726 106.977 248.167 106.009 250.331C104.615 253.586 102.766 256.47 100.558 258.835C99.6234 259.883 98.6458 260.869 97.647 261.813C96.4463 262.958 95.1819 263.042 94.2203 262.153C93.2587 261.264 92.8922 259.82 93.3172 257.842C94.0733 254.544 95.0993 251.363 96.3773 248.352C97.3507 246.062 97.8368 243.474 97.7851 240.855C97.6682 235.635 97.392 230.442 97.1051 225.229C96.7332 218.363 96.2391 211.518 95.6707 204.673C95.0544 197.225 94.3744 189.783 93.5456 182.376C93.0621 178.148 92.7646 173.899 92.4033 169.651C92.0248 165.515 91.2887 161.449 90.2092 157.53C90.1189 157.301 90.1189 156.975 89.7736 156.905ZM10.2478 277.856C10.3984 277.948 10.5625 277.995 10.7286 277.995C10.8948 277.995 11.0589 277.948 11.2094 277.856C13.8363 276.937 16.3991 275.729 18.8703 274.246C21.2427 272.867 23.4407 271.025 25.389 268.783C25.889 268.22 26.2945 267.527 26.5798 266.75C26.865 265.972 27.024 265.125 27.0466 264.263C27.0731 263.271 27.105 262.271 27.1528 261.271C27.5406 252.941 27.9763 244.548 28.3163 236.183C28.6723 227.54 28.9379 218.891 29.2035 210.241C29.5117 200.036 29.6445 189.824 29.7348 179.62C29.7826 175.232 29.6923 170.845 29.6604 166.43C29.628 165.426 29.7688 164.426 30.0723 163.503C30.3758 162.58 30.8342 161.759 31.4136 161.098C31.5993 160.842 31.8381 160.662 32.1009 160.581C32.3636 160.5 32.6388 160.521 32.8927 160.641C33.1466 160.761 33.3681 160.975 33.53 161.258C33.6919 161.54 33.7873 161.878 33.8043 162.23C33.8621 162.724 33.8959 163.223 33.9053 163.723C33.9956 166.603 34.0965 169.484 34.1603 172.372C34.3409 180.133 34.5428 187.902 34.665 195.663C34.7925 203.993 34.8987 212.323 34.9147 220.654C34.9147 229.262 34.9997 237.87 34.8562 246.478C34.75 252.58 34.7659 258.689 34.6969 264.798C34.6579 266.083 34.9919 267.34 35.6319 268.317C37.3213 270.962 39.0533 273.559 40.9446 275.954C41.7248 276.975 42.5496 277.937 43.415 278.835C44.4297 279.869 45.4816 279.418 45.9438 277.835C46.0593 277.416 46.1517 276.987 46.2201 276.551C46.605 273.927 46.6427 271.236 46.3316 268.595C46.1635 266.945 46.1332 265.276 46.2413 263.618C46.5955 258.647 46.9497 253.674 47.3039 248.699C47.952 239.355 48.3983 229.998 48.8021 220.633C49.1368 212.997 49.3015 205.361 49.4768 197.683C49.6202 191.518 49.1474 185.375 48.9933 179.217C48.7861 170.789 48.4939 162.362 48.3186 153.934C48.1698 146.944 48.1061 139.946 48.053 132.956C47.9361 118.301 47.952 103.64 48.2814 88.9851C48.4514 81.335 48.7135 73.6988 49.0677 66.0765C49.1846 63.5844 49.3599 61.0922 49.4927 58.607C49.5246 58.0377 49.6521 57.5865 50.1568 57.6559C50.6615 57.7253 50.6031 58.239 50.5924 58.6833C50.5606 59.683 50.534 60.6826 50.4703 61.6754C50.0346 68.7006 49.7849 75.7398 49.5937 82.7859C49.3811 90.6025 49.2908 98.4262 49.158 106.25C49.158 106.611 49.0411 107.041 49.4502 107.319C53.3606 103.782 56.8927 99.5798 59.9534 94.8233C60.9597 93.2331 61.5218 91.2427 61.5472 89.1795C61.6213 84.9588 61.3146 80.7414 60.6335 76.6144C59.3471 68.5172 57.6359 60.5451 55.512 52.7548C55.0255 50.9155 54.175 49.2772 53.0469 48.0065C51.109 45.8301 48.8663 44.1657 46.4432 43.1055C43.8677 41.9594 41.2046 41.1819 38.5007 40.7868C37.5179 40.6202 37.4701 40.5508 37.4382 39.2249C37.4382 38.0586 37.4382 36.8924 37.4382 35.7539C37.3922 35.1089 37.5251 34.4637 37.8129 33.9361C38.1006 33.4085 38.5238 33.0337 39.0055 32.8799C39.6013 32.6553 40.1388 32.2223 40.5601 31.6278C40.9814 31.0332 41.2705 30.2996 41.3962 29.5061C41.7813 27.8553 41.9202 26.1231 41.8053 24.4038C41.5855 21.4185 41.175 18.4625 40.578 15.5666C39.9454 12.0466 38.8137 8.71243 37.2416 5.73676C36.7519 4.78632 36.1014 3.99584 35.3405 3.42646C34.5795 2.85709 33.7285 2.52408 32.8533 2.45321C29.6285 2.23801 27.0466 3.88326 25.3093 7.48615C24.2466 9.72412 23.771 12.3537 23.9546 14.9766C24.3583 22.5619 24.7763 30.1448 25.2084 37.7255C25.2509 38.503 25.0809 38.8362 24.5337 39.0167C22.8866 39.5691 21.2697 40.2648 19.6938 41.0993C17.2914 42.2348 15.0359 43.8431 13.0051 45.8684C12.0064 46.9092 11.2335 48.2733 10.7632 49.8253C8.79746 56.212 7.00175 62.6749 5.49294 69.2629C3.6742 77.1252 2.27014 85.1412 1.29061 93.2544C1.03285 95.3461 1.39785 97.4874 2.31064 99.2384C5.14762 105.111 9.03654 109.492 13.5523 112.997C13.7542 113.15 13.972 113.428 14.3439 112.997C14.3439 110.512 14.3439 107.902 14.3439 105.299C14.413 100.245 14.4183 95.1981 14.2058 90.1583C14.0942 87.4995 13.972 84.8407 13.8658 82.1819C13.8658 81.6752 13.8658 81.1129 14.397 81.0504C14.9283 80.9879 15.0345 81.4808 15.0558 82.0223C15.0558 82.7165 15.093 83.3551 15.1249 84.0216C15.3746 89.3947 15.6561 94.7747 15.5871 100.155C15.5286 105.785 15.4436 111.415 15.4224 117.045C15.3746 130.311 15.3639 143.584 15.5552 156.85C15.6721 165.118 15.6455 173.393 15.8102 181.661C15.9218 187.263 15.9643 192.872 16.0599 198.474C16.214 207.742 16.368 217.002 16.5912 226.242C16.7452 232.733 16.7399 239.224 16.6868 245.68C16.6443 250.956 16.4743 256.224 16.1077 261.473C15.9827 264.032 15.323 266.498 14.2005 268.602C12.9839 270.881 11.8904 273.268 10.9279 275.745C10.6067 276.39 10.3763 277.105 10.2478 277.856ZM108.055 112.282C108.142 112.321 108.236 112.334 108.327 112.319C108.419 112.305 108.508 112.264 108.586 112.199C112.088 110.173 115.361 107.529 118.313 104.341C119.691 102.852 120.894 101.107 121.883 99.1621C122.483 98.0003 122.749 96.5983 122.633 95.2051C122.436 92.7754 122.192 90.3458 121.82 87.9647C120.46 79.7728 118.461 71.7847 115.854 64.1258C113.926 58.0111 110.397 52.9915 105.898 49.9642C102.59 47.7942 99.5051 45.0861 96.7173 41.9045C95.7777 40.8433 95.1503 39.3878 94.9428 37.7879C94.8124 36.7468 94.7273 35.6969 94.6878 34.6432C94.5072 30.1379 94.9003 25.6672 95.2829 21.2035C95.4847 18.8433 95.9629 16.5107 95.6813 14.088C95.2935 10.7767 94.2681 7.94433 92.2174 5.84091C91.3671 4.89574 90.2952 4.35851 89.1793 4.31811C88.0633 4.27771 86.9704 4.7366 86.0813 5.6188C84.9756 6.66206 84.0067 7.93269 83.2124 9.3813C81.3112 12.7877 79.8487 16.577 78.8826 20.5996C78.4969 22.0261 78.4203 23.564 78.6613 25.0438C78.9022 26.5236 79.4512 27.8876 80.2479 28.9855C80.8093 29.9637 81.481 30.8251 82.2402 31.5402C83.9349 32.88 84.0412 34.8098 83.7277 36.9965C83.6534 37.545 83.5418 38.0795 83.4834 38.6279C83.4351 39.1436 83.2793 39.632 83.0328 40.0398C82.7864 40.4475 82.4589 40.7588 82.0861 40.9396C78.0436 43.3493 74.5316 47.0526 71.8751 51.7067C70.09 54.8583 68.6875 58.2529 68.2359 62.2098C68.052 63.6329 67.809 65.0419 67.5081 66.4306C65.8718 74.6499 64.432 82.9109 63.8954 91.4217C63.5873 96.2811 64.4851 100.495 67.083 104.112C68.9926 106.798 71.1155 109.211 73.4158 111.311C73.5004 111.426 73.615 111.495 73.7369 111.506C73.8589 111.516 73.9793 111.466 74.0746 111.366C73.8886 109.075 73.9736 106.687 73.5433 104.355C73.1837 102.411 72.9298 100.437 72.7836 98.447C72.4595 94.5873 72.332 90.7067 72.2523 86.8262C72.0823 80.8283 72.1673 74.8443 72.2842 68.8533C72.2912 68.4656 72.3142 68.0785 72.3533 67.694C72.3701 67.5259 72.4334 67.3718 72.5313 67.2606C72.6292 67.1493 72.7548 67.0886 72.8845 67.09C72.9489 67.0815 73.0139 67.0898 73.0758 67.1147C73.1376 67.1396 73.195 67.1804 73.2445 67.2348C73.2941 67.2892 73.3348 67.356 73.3642 67.4313C73.3936 67.5066 73.4112 67.5889 73.4158 67.6732C73.446 67.9467 73.4548 68.2235 73.4424 68.4993C73.2511 76.9338 73.2086 85.3684 73.6442 93.789C73.773 97.1181 74.1052 100.428 74.6377 103.688C74.8474 104.648 74.9914 105.631 75.068 106.625C75.2487 110.998 75.4718 115.372 75.5993 119.752C75.8065 127.465 76.0137 135.17 76.104 142.883C76.2174 152.925 76.1908 162.973 76.0243 173.025C75.9818 175.461 75.934 177.884 75.7852 180.342C75.4399 185.895 74.9087 191.484 74.5633 197.072C73.8939 207.811 73.5592 218.592 73.5008 229.331C73.5008 233.212 73.5274 237.099 73.5858 240.987C73.634 245.706 73.9894 250.411 74.6484 255.051C74.8216 256.486 75.1358 257.886 75.5834 259.216C75.8915 260.063 76.2209 260.23 76.7787 259.654C78.4522 257.939 79.8442 255.975 79.9664 252.962C80.062 250.47 80.2054 247.977 80.3595 245.492C80.7686 239.022 81.2255 232.559 81.7621 226.103C82.3252 219.258 82.9627 212.434 83.7224 205.624C84.2537 200.904 84.8593 196.19 85.0931 191.428C85.3587 185.999 85.4225 180.557 85.8688 175.142C86.2659 169.171 87.1184 163.266 88.4135 157.516C88.4879 157.197 88.5729 156.885 88.6526 156.565C88.725 156.182 88.897 155.844 89.1393 155.608C89.3816 155.373 89.6791 155.255 89.9808 155.274C90.2602 155.262 90.5348 155.371 90.7617 155.585C90.9885 155.798 91.1549 156.104 91.2346 156.454C91.309 156.718 91.394 156.968 91.4631 157.232C92.0836 159.652 92.6014 162.116 93.0143 164.611C93.6412 168.311 93.7528 172.088 94.1194 175.829C94.8632 183.424 95.7132 190.991 96.4145 198.599C97.052 205.77 97.6364 212.941 98.0667 220.119C98.4598 226.589 98.7361 233.073 99.0655 239.557C99.2647 242.899 98.7107 246.243 97.4717 249.178C96.2334 252.092 95.2344 255.168 94.4913 258.356C94.2575 259.369 94.316 260.216 94.9747 260.89C95.6335 261.563 96.1116 261.452 96.951 260.702C98.1079 259.664 99.2101 258.525 100.25 257.294C102.439 254.704 104.368 251.83 105.563 248.269C106.132 246.774 106.458 245.14 106.519 243.472C106.519 241.147 106.583 238.814 106.599 236.481C106.631 230.379 106.679 224.271 106.679 218.162C106.679 204.398 106.634 190.63 106.546 176.857C106.443 161.483 106.482 146.106 106.663 130.727C106.785 120.627 106.896 110.526 107.104 100.425C107.305 90.7761 107.619 81.1337 108.044 71.4982C108.156 69.006 108.331 66.5139 108.474 64.0287C108.506 63.508 108.692 63.1609 109.112 63.2303C109.532 63.2998 109.574 63.6746 109.563 64.0911C109.563 64.9797 109.521 65.8683 109.468 66.7568C109.011 73.9418 108.788 81.1545 108.559 88.3603C108.384 93.9556 108.256 99.5578 108.14 105.16C108.017 107.513 108.055 109.887 108.055 112.282Z" fill="white"/>
</svg>
