<svg width="56" height="296" viewBox="0 0 56 296" fill="none" xmlns="http://www.w3.org/2000/svg">
<path d="M56.0002 106.069C55.6602 106.541 55.8196 107.125 55.8142 107.652C55.7826 111.981 55.543 116.303 55.097 120.592C54.4913 126.451 52.9188 131.866 50.9903 137.142C49.4019 141.508 47.4701 145.647 45.226 149.492C44.8631 150.105 44.6618 150.855 44.6523 151.63C44.5779 153.712 44.4875 155.732 44.4078 157.78C44.2113 162.64 43.51 167.36 42.9044 172.122C41.5231 182.896 40.0319 193.65 38.431 204.382C36.3803 218.155 34.1809 231.879 31.6627 245.534C30.462 252.115 29.5961 258.793 28.252 265.332C27.7207 267.901 27.1894 270.463 26.5519 272.969C26.1428 274.663 25.9877 276.445 26.095 278.217C26.3827 282.308 26.4767 286.419 26.3766 290.525C26.36 291.19 26.3139 291.853 26.2384 292.51C26.1808 293.149 26.0028 293.759 25.7205 294.285C25.4381 294.812 25.0603 295.239 24.6207 295.528C24.1811 295.817 23.6936 295.959 23.2017 295.941C22.7099 295.923 22.229 295.746 21.8023 295.426C20.5632 294.56 19.4573 293.402 18.5403 292.01C16.9354 289.636 15.5565 287.016 14.4336 284.208C14.1574 283.514 13.8758 282.882 13.5517 282.125C12.7601 283.833 12.0535 285.409 11.2991 286.936C10.5228 288.534 9.59455 289.996 8.53655 291.289C7.71586 292.347 6.69459 293.102 5.57735 293.475C3.56383 294.086 2.07099 292.635 2.08161 289.935C2.06956 284.758 2.79002 279.622 4.20669 274.787C5.31279 270.88 5.73395 266.697 5.43921 262.549C5.0992 255.683 4.96637 248.804 4.70074 241.931C4.4776 236.162 4.51481 230.393 4.38199 224.625C4.3448 223.077 4.45105 221.522 4.44574 219.967C4.44574 213.58 4.44572 207.193 4.36072 200.814C4.20134 189.012 4.25448 177.162 4.31292 165.333C4.3448 159.453 4.19606 153.532 4.59983 147.694C4.61903 147.026 4.54335 146.36 4.37667 145.729C2.58643 137.39 1.37031 128.86 0.742803 120.238C0.174345 112.255 0.2115 104.271 1.43873 96.3715C2.07626 92.2896 2.32596 88.1313 2.70316 84.0008C3.14942 79.1414 3.44694 74.282 3.7657 69.4226C3.90189 67.4253 4.34917 65.4854 5.08006 63.7222C5.81094 61.9589 6.80999 60.4097 8.01586 59.1694C10.8316 56.1218 13.6314 53.0535 16.4577 50.0337C17.5957 48.8515 18.4268 47.2394 18.8378 45.4173C19.3684 43.0774 19.747 40.6831 19.9694 38.26C20.1447 36.3996 19.6932 35.0251 18.3756 34.1643C17.1574 33.3338 16.1827 32.0015 15.6024 30.3739C15.3887 29.8936 15.2497 29.3628 15.1933 28.812C14.7683 22.467 14.8427 16.1706 16.2134 9.99228C16.631 8.00405 17.3086 6.12517 18.2163 4.43869C18.8118 3.30982 19.604 2.38199 20.5276 1.73146C21.4513 1.08094 22.4799 0.72632 23.529 0.696944C25.662 0.516952 27.7915 1.11294 29.6811 2.41863C32.6137 4.50122 34.1915 7.70842 34.1915 12.1374C34.1915 21.8562 34.2287 31.575 34.1915 41.2938C34.1915 45.7089 35.5516 48.8813 38.4417 51.1583C45.1874 56.3761 50.5165 64.2181 53.6838 73.5878C54.369 75.8599 54.7881 78.2541 54.927 80.6895C55.4969 86.3612 55.7915 92.0742 55.8089 97.7945C55.8089 98.211 55.692 98.6901 55.9949 99.0441L56.0002 106.069ZM44.8435 147.215C45.2347 146.893 45.5522 146.44 45.7626 145.903C47.5874 142.417 49.1766 138.731 50.5122 134.886C51.7979 131.381 52.7848 127.703 53.4554 123.917C54.5179 117.371 54.7676 110.727 54.8367 104.056C54.8846 96.7835 54.5758 89.5142 53.9123 82.2931C53.6201 78.9332 53.227 75.6427 52.021 72.5257C48.816 64.1229 43.8221 57.108 37.6395 52.3245C34.5634 49.9156 33.0281 46.4446 33.0387 41.7449C33.0387 31.9151 33.0387 22.0852 33.0387 12.2554C33.0387 8.38174 31.6521 5.61192 29.0914 3.77923C27.7973 2.92728 26.3873 2.41768 24.9422 2.27974C22.3336 1.90487 20.2776 3.05721 18.8485 5.97979C17.966 7.87949 17.3322 9.95828 16.9731 12.1305C16.0912 16.8232 16.1549 21.5924 16.1815 26.3685C16.1319 27.7624 16.3971 29.1445 16.944 30.343C17.4909 31.5415 18.2955 32.5035 19.2575 33.1091C19.9083 33.5381 20.4398 34.2229 20.7772 35.0672C21.1145 35.9115 21.2408 36.8728 21.1383 37.8158C20.9807 40.6453 20.5705 43.4411 19.9163 46.1462C19.4775 48.0746 18.6035 49.7852 17.4087 51.0541C14.5505 54.1156 11.7242 57.2255 8.87126 60.3078C7.76094 61.4369 6.83896 62.8507 6.16199 64.4623C5.48501 66.0739 5.06731 67.8493 4.93453 69.6795C4.55202 74.9831 4.22792 80.2938 3.71258 85.5766C3.31944 89.6516 3.02728 93.7405 2.42163 97.7738C1.84678 101.7 1.55153 105.688 1.53971 109.686C1.46002 120.245 2.71379 130.582 4.57324 140.814C4.65293 141.251 4.63702 141.793 4.93985 142.126C5.2958 141.918 5.21077 141.536 5.24796 141.238C6.67708 129.617 7.90434 117.968 8.86594 106.271C9.67878 96.3923 10.3588 86.4999 10.6457 76.5659C10.6427 76.2906 10.6641 76.0157 10.7094 75.7468C10.7891 75.3372 10.9697 75.0526 11.3363 75.0943C11.4659 75.1147 11.5852 75.1968 11.6714 75.3248C11.7576 75.4529 11.8048 75.6179 11.8038 75.7885C11.8277 76.1766 11.8277 76.5666 11.8038 76.9547C11.5329 83.6052 11.2194 90.2486 10.7413 96.8782C10.2631 103.508 9.71592 110.13 9.0784 116.732C8.33993 124.368 7.53244 132.005 6.59209 139.641C5.99671 143.9 5.64157 148.212 5.52955 152.539C5.47996 157.084 5.45694 161.635 5.46048 166.194C5.46048 180.772 5.46046 195.295 5.50828 209.838C5.55078 218.495 5.47113 227.193 5.67832 235.815C5.90677 245.187 6.20959 254.559 6.60804 263.923C6.80633 267.686 6.38041 271.461 5.35951 274.989C4.02054 279.678 3.30193 284.632 3.23443 289.636C3.19724 291.781 4.1695 292.635 5.73143 291.941C6.45598 291.601 7.11307 291.053 7.65463 290.338C10.2871 287.071 12.2304 282.973 13.2967 278.439C14.2096 274.1 14.9315 269.696 15.459 265.249C16.7499 255.621 17.7593 245.95 18.5775 236.239C19.64 223.743 20.8461 211.247 21.1383 198.613C21.3189 190.977 21.6695 183.341 22.1211 175.705C22.3602 171.609 22.6524 167.52 22.8862 163.424C22.9233 162.834 23.0243 162.244 23.6087 162.362C24.0974 162.459 24.0921 163.015 24.0602 163.542C23.7946 167.707 23.5325 171.856 23.274 175.989C22.8755 182.237 22.578 188.485 22.408 194.732C22.2699 200.057 22.1689 205.381 21.7811 210.699C20.9257 222.5 20.0226 234.302 18.8219 246.103C17.685 257.273 16.4896 268.422 14.3273 279.348C14.2 279.76 14.2 280.221 14.3273 280.633C15.9743 284.978 17.7859 289.178 20.5644 292.51C21.1195 293.202 21.7564 293.771 22.4505 294.197C22.7186 294.365 23.0134 294.446 23.3104 294.434C23.6073 294.422 23.8978 294.318 24.1577 294.13C24.4176 293.942 24.6393 293.675 24.8044 293.352C24.9695 293.03 25.0732 292.66 25.1068 292.274C25.1421 291.945 25.1616 291.614 25.1653 291.282C25.3318 287.233 25.259 283.174 24.9474 279.14C24.7529 276.819 24.9339 274.47 25.4787 272.247C25.9196 270.567 26.2809 268.852 26.6475 267.144C28.0341 260.73 28.9001 254.163 30.0689 247.707C32.789 232.643 35.2824 217.514 37.5492 202.32C39.1076 191.81 40.5561 181.272 41.8949 170.706C42.4906 166.73 42.9198 162.714 43.1806 158.676C43.5738 149.485 43.9085 140.28 44.2432 131.081C44.5726 122.439 44.9179 113.796 45.226 105.146C45.5235 96.8158 45.7573 88.4853 46.0548 80.2035C46.0548 79.5649 45.9964 78.6139 46.6552 78.6069C47.4946 78.6069 47.2448 79.6204 47.2236 80.2799C47.1014 84.1605 46.9473 88.0411 46.8092 91.9216C46.4957 100.787 46.1982 109.658 45.8688 118.523C45.6032 125.729 45.3057 132.928 45.0294 140.134C44.9923 142.397 44.9285 144.702 44.8488 147.215H44.8435Z" fill="white"/>
</svg>
