<svg width="52" height="256" viewBox="0 0 52 256" fill="none" xmlns="http://www.w3.org/2000/svg">
<path d="M26.627 197.718C26.2126 202.73 25.7504 207.742 25.3891 212.761C24.9216 219.28 24.4647 225.798 24.2735 232.351C24.2469 233.233 24.1938 234.122 24.1778 235.01C24.0703 237.059 24.2632 239.116 24.7463 241.071C25.557 244.171 26.1492 247.361 26.5154 250.602C26.6029 251.257 26.6403 251.922 26.627 252.587C26.6252 253.006 26.5587 253.419 26.4315 253.803C26.3043 254.187 26.119 254.533 25.8867 254.821C25.6545 255.109 25.3801 255.333 25.08 255.479C24.78 255.624 24.4604 255.689 24.1406 255.67C22.5468 255.67 21.3196 254.552 20.3049 253.053C19.0477 251.171 17.9055 249.163 16.8888 247.048C15.9608 245.185 15.1777 243.206 14.5512 241.14C14.2438 240.107 14.0871 239.007 14.089 237.898C14.1209 228.179 14.1369 218.461 14.1369 208.742C14.1369 191.748 14.1067 174.756 14.0465 157.767C14.0093 149.332 13.8712 140.898 13.7065 132.463C13.5312 123.695 13.2656 114.935 13.0371 106.174C13.0371 105.619 12.9521 105.063 12.9627 104.515C12.9642 104.142 12.8964 103.774 12.765 103.442C12.6336 103.111 12.4425 102.826 12.2083 102.613C10.9599 101.12 9.83886 99.4332 8.70194 97.7532C7.02313 95.3235 5.42933 92.7828 3.69207 90.4295C2.02844 88.1008 0.955978 85.1574 0.62135 82.0019C0.408842 80.4191 0.249465 78.8225 0.127273 77.2189C-0.101729 74.4572 0.12654 71.6635 0.796646 69.0273C2.63057 61.8689 4.18566 54.5937 5.45589 47.2295C5.71989 45.7564 6.40635 44.4718 7.37377 43.6405C10.4764 40.711 13.5418 37.7259 16.6498 34.8172C17.6541 33.8815 18.4945 32.6769 19.1149 31.2837C19.9947 29.3838 20.7161 27.3661 21.2665 25.2651C21.4593 24.5879 21.5209 23.8589 21.4458 23.1431C21.3707 22.4272 21.1613 21.7468 20.8362 21.1623C19.3699 18.3855 18.0151 15.4768 16.5116 12.7278C15.6523 11.2584 15.2183 9.43935 15.2864 7.59222C15.3545 5.74508 15.9202 3.98891 16.8835 2.63419C17.8818 1.24 19.224 0.34987 20.6745 0.120091C22.125 -0.109688 23.5911 0.335528 24.8154 1.37765C28.8929 4.85455 32.2608 9.57699 34.6279 15.1366C35.3583 16.9257 35.5642 19.0016 35.207 20.9749C34.8617 23.3351 33.6132 24.668 31.9078 25.3761C31.435 25.5704 30.8028 25.4663 30.5212 26.0217C30.2396 26.5771 30.4734 27.3268 30.4149 27.9793C30.3714 28.3871 30.4214 28.8026 30.5585 29.1732C30.6956 29.5439 30.9137 29.8531 31.1853 30.0619C36.0039 34.72 40.8863 39.2532 45.9759 43.3906C47.1212 44.2673 47.9584 45.6951 48.3081 47.3683C49.2398 51.6868 49.8973 56.0984 50.2738 60.5581C50.837 66.7827 51.1911 73.0305 51.3363 79.3015C51.3788 81.1342 51.3364 82.9669 51.2939 84.7996C51.2879 85.9423 51.0767 87.0671 50.6771 88.0836C50.2776 89.1001 49.7008 89.9797 48.9935 90.6516C47.1478 92.5288 45.1613 94.157 43.0645 95.511C42.733 95.6626 42.4491 95.9531 42.257 96.3372C42.0649 96.7214 41.9752 97.1777 42.0019 97.6353C41.7947 107.354 41.5344 117.073 41.3326 126.792C41.1201 136.83 40.9607 146.875 40.8013 156.92C40.7554 165.356 40.3368 173.781 39.5475 182.154C39.2021 185.507 38.639 188.818 38.2193 192.157C37.4968 197.857 36.9815 203.584 36.5193 209.325C35.818 218.051 35.4567 226.798 35.0529 235.552C34.9361 238.252 34.9945 240.842 36.1527 243.25C36.4074 243.675 36.5302 244.21 36.4968 244.747C36.4633 245.285 36.2759 245.787 35.972 246.152C35.4408 246.846 34.6492 246.909 33.7301 246.242C31.4434 244.524 29.3196 242.46 27.4026 240.092C27.0264 239.636 26.7319 239.078 26.54 238.456C26.348 237.834 26.2635 237.165 26.2923 236.496L26.4836 226.18C26.5314 223.57 26.5845 220.96 26.6164 218.356C26.7014 212.081 26.7775 205.81 26.8448 199.544C26.8448 198.933 26.8448 198.329 26.8448 197.718H26.627ZM42.1932 94.3309C44.5662 92.9414 46.7812 91.131 48.7756 88.9509C49.4869 88.1385 49.943 87.0108 50.056 85.7853C50.2357 83.7998 50.3014 81.7996 50.2526 79.8013C50.0082 74.0394 49.7638 68.2776 49.2857 62.5435C48.9142 57.6184 48.23 52.7423 47.2403 47.9653C47.1115 47.2939 46.8822 46.6624 46.5658 46.1072C46.2495 45.552 45.8521 45.084 45.3968 44.7303C40.5516 40.815 35.9561 36.3999 31.2969 32.1445C29.7827 30.7561 29.0496 29.2914 29.2409 26.827C29.4109 24.6056 29.278 24.5847 30.9197 24.1266C33.5282 23.3907 34.5907 21.204 34.1073 17.7746C33.8629 16.1224 33.1563 14.8242 32.471 13.4914C30.3517 9.24602 27.5933 5.60872 24.3638 2.80079C23.3792 1.89765 22.1805 1.48259 20.9829 1.63018C19.7853 1.77776 18.6671 2.47827 17.8292 3.606C16.0919 5.89686 15.9644 8.79169 17.4785 11.7906C18.9023 14.623 20.3102 17.4692 21.7871 20.246C22.2246 21.0387 22.5066 21.9595 22.6085 22.9277C22.7104 23.8959 22.629 24.882 22.3715 25.7996C21.8118 28.0151 21.0558 30.1376 20.119 32.1237C19.4361 33.6631 18.5107 34.9953 17.4041 36.0321C14.2962 38.9408 11.2308 41.9258 8.1282 44.8553C7.33869 45.5282 6.77751 46.5722 6.56094 47.7709C5.22214 55.7473 3.37332 63.5432 1.51388 71.3182C1.25021 72.3175 1.12956 73.3717 1.15794 74.4282C1.22792 77.647 1.57 80.8459 2.17797 83.9665C2.42617 85.379 2.90456 86.7049 3.58053 87.854C6.31657 92.1025 9.18542 96.1844 12.0808 100.259C12.2562 100.502 12.3996 100.953 12.798 100.697C12.798 100.259 12.798 99.8151 12.798 99.3708C12.458 92.8939 12.1711 86.4101 11.7355 79.9332C11.3902 74.5671 10.9599 69.2148 10.2905 63.8972C10.1417 62.7518 9.98762 61.6064 9.83355 60.4262C9.65823 59.0934 9.74325 58.6282 10.2108 58.6213C10.9811 58.6213 10.8802 59.4891 10.9705 60.0722C11.1936 61.4606 11.3583 62.8003 11.5017 64.1749C12.6971 74.9488 13.3081 85.7992 13.7862 96.6564C14.1634 105.244 14.4609 113.831 14.6203 122.432C14.7903 131.804 14.9975 141.175 15.0931 150.561C15.1994 160.662 15.1941 170.762 15.2313 180.87C15.2685 190.089 15.3163 199.301 15.3163 208.52C15.3163 218.176 15.2685 227.839 15.226 237.496C15.2009 238.685 15.3693 239.868 15.72 240.967C17.1299 245.075 19.013 248.877 21.3037 252.24C21.8047 253.005 22.4464 253.59 23.1684 253.941C24.7091 254.691 25.6814 253.622 25.4317 251.484C24.9898 247.708 24.2929 243.991 23.3491 240.376C23.1188 239.482 23.0039 238.543 23.009 237.6C23.009 232.324 23.3066 227.069 23.62 221.814C23.999 215.45 24.4718 209.098 25.0385 202.758C25.6548 195.982 26.1435 189.179 26.9351 182.439C28.1517 172.026 28.7521 161.613 29.3684 151.144C29.7881 143.959 30.0749 136.753 30.4309 129.555C30.4343 129.223 30.4737 128.893 30.5478 128.576C30.591 128.441 30.6656 128.328 30.761 128.252C30.8564 128.176 30.9676 128.141 31.079 128.152C31.1867 128.153 31.2916 128.197 31.3798 128.277C31.468 128.358 31.5355 128.472 31.5731 128.603C31.6327 128.867 31.6526 129.143 31.6316 129.416C31.4616 133.185 31.3022 136.948 31.1003 140.71C30.7461 147.578 30.3565 154.442 29.9315 161.3C29.6234 166.5 29.2462 171.713 28.7361 176.864C28.4451 178.993 28.2429 181.142 28.1305 183.299C28.0083 191.401 28.0083 199.509 27.9286 207.596C27.8808 212.754 27.8383 217.912 27.7002 223.077C27.5886 227.346 27.6099 231.623 27.4239 235.885C27.3681 236.495 27.4243 237.113 27.5878 237.689C27.7514 238.265 28.0175 238.782 28.3642 239.196C30.1156 241.301 32.0296 243.162 34.0754 244.75C34.3888 244.986 34.7235 245.444 35.1007 245.041C35.4779 244.639 35.1592 244.028 35.0051 243.549C34.8511 243.07 34.681 242.64 34.5057 242.202C34.0185 240.958 33.8034 239.562 33.8841 238.169C33.9532 236.565 33.9745 234.955 34.0382 233.309C34.3304 225.833 34.7076 218.356 35.2708 210.901C35.7648 204.271 36.3917 197.669 37.1993 191.095C37.7305 186.659 38.5168 182.272 38.825 177.787C39.4572 168.381 39.6856 158.954 39.7547 149.52C39.7795 146.41 39.8291 143.302 39.9034 140.197C40.1018 130.825 40.3072 121.453 40.5197 112.082C40.6525 106.202 40.7694 100.322 40.9553 94.442C41.2351 85.4683 41.5468 76.49 41.8904 67.507C42.0763 62.5782 42.326 57.6494 42.5598 52.7206C42.5804 52.2222 42.6355 51.7273 42.7245 51.2419C42.7583 51.1089 42.8269 50.9956 42.9182 50.922C43.0095 50.8484 43.1177 50.8191 43.2239 50.8393C43.3317 50.8322 43.4378 50.877 43.522 50.9653C43.6062 51.0536 43.6627 51.1793 43.6808 51.3184C43.7099 51.7572 43.7099 52.1984 43.6808 52.6373C43.4364 58.1214 43.1495 63.6057 42.9423 69.0898C42.6926 75.5181 42.4907 81.9463 42.2835 88.3746C42.1641 90.356 42.1339 92.3449 42.1932 94.3309Z" fill="white"/>
</svg>
