<svg width="48" height="290" viewBox="0 0 48 290" fill="none" xmlns="http://www.w3.org/2000/svg">
<path d="M26.4917 165.268L24.2285 173.64C23.3679 176.833 22.5603 180.047 21.6412 183.213C20.9275 186.001 20.4396 188.879 20.1856 191.8C19.4524 198.048 18.3208 204.205 17.1998 210.356C15.9648 217.05 15.2528 223.891 15.0747 230.772C14.9738 234.827 14.9366 238.874 14.9047 242.928C14.8304 251.085 14.841 259.241 14.9897 267.398C14.9897 268.565 15.0641 269.731 15.1225 270.869C15.3685 274.508 14.5567 278.134 12.8487 281.025C11.393 283.476 9.84173 285.836 8.32761 288.238C8.22136 288.405 8.10447 288.571 7.98759 288.731C7.76436 289.108 7.45337 289.379 7.10161 289.504C6.74985 289.63 6.37644 289.602 6.03784 289.425C5.69938 289.257 5.41228 288.949 5.22041 288.548C5.02854 288.147 4.94246 287.675 4.9753 287.204C4.9753 285.121 4.8956 283.094 4.8956 281.039C4.8956 272.605 4.9753 264.17 5.24093 255.743C5.37907 251.418 5.18248 247.086 5.09748 242.761C5.04435 240.262 5.02313 237.77 5.02313 235.271C5.02313 228.273 4.96468 221.276 5.08156 214.285C5.24625 204.192 5.46406 194.098 5.96345 184.018C6.32472 176.812 6.73379 169.62 7.35538 162.456C7.72727 158.104 8.18417 153.758 8.69419 149.426C8.9436 146.893 9.08194 144.344 9.10856 141.79C9.26263 136.854 9.42202 131.925 9.61328 126.997C9.66411 126.511 9.60401 126.017 9.44048 125.576C9.27695 125.135 9.0173 124.767 8.69419 124.518C6.73147 122.757 4.90736 120.746 3.24867 118.514C2.83428 117.951 2.45709 117.354 2.05863 116.778C0.783586 114.945 0.379821 112.828 0.464824 110.35C0.677332 102.528 0.677332 94.7026 0.464824 86.872C0.211311 78.028 1.2945 69.2055 3.65244 60.9089C5.24625 55.3068 8.00884 50.7875 11.4727 46.9556C14.1962 43.9708 16.1021 39.9087 16.9023 35.3832C17.1559 33.8657 17.3175 32.3245 17.3858 30.7737C17.4262 30.2184 17.3334 29.6603 17.1201 29.1771C14.5647 23.5332 14.0547 17.3757 14.5275 11.0099C14.6285 9.62153 14.7666 8.23309 14.9472 6.88634C15.6007 1.97142 18.783 -0.846971 22.5178 0.180443C24.1819 0.655042 25.7648 1.52569 27.1877 2.74894C27.8953 3.32089 28.5066 4.0749 28.9843 4.96518C29.4619 5.85545 29.796 6.86337 29.9662 7.92764C30.7267 12.551 30.8741 17.3106 30.4019 21.9991C30.0601 25.805 29.3459 29.5379 28.2768 33.1062C27.9421 34.1892 28.1174 35.2999 28.144 36.3898C28.213 37.7188 28.213 39.0524 28.144 40.3814C28.0279 41.5701 28.1648 42.7777 28.5397 43.8713C28.9146 44.965 29.513 45.9024 30.269 46.5807C34.3166 50.7356 37.8938 55.6179 40.8944 61.0825C41.4255 62.0189 41.815 63.0792 42.042 64.2064C43.1111 69.6969 43.9534 75.2585 44.5655 80.8671C45.5378 89.0379 46.4303 97.2294 46.9987 105.463C47.53 112.925 46.9297 120.207 44.3424 127.052C44.136 127.596 44.0671 128.211 44.1458 128.808C45.1074 138.666 45.6918 148.565 46.1594 158.479C46.7969 172.002 46.9828 185.552 46.9084 199.082C46.8553 209.794 46.4675 220.491 45.9415 231.182C45.5271 239.651 45.2349 248.127 45.0277 256.617C44.879 262.497 44.778 268.377 44.794 274.257C44.794 277.645 44.7674 281.032 45.0277 284.406C45.0463 284.683 45.0463 284.962 45.0277 285.239C44.9587 287.412 43.5349 288.46 42.0579 287.412C41.234 286.824 40.5222 286 39.9754 285.003C39.2154 283.666 38.3752 282.41 37.4625 281.248C36.1474 279.428 35.0317 277.379 34.1473 275.16C33.6957 274.018 33.5005 272.733 33.5842 271.452C33.7648 266.19 33.9507 260.928 34.0782 255.659C34.312 246.336 34.4236 237.013 34.3067 227.69C34.2058 219.867 34.0836 212.036 33.4992 204.247C32.8479 196.076 31.7309 187.98 30.1575 180.026C29.3234 175.667 28.3459 171.363 27.193 167.128C27.0518 166.456 26.8138 165.824 26.4917 165.268ZM9.46454 123.415C9.57378 123.229 9.65392 123.017 9.70041 122.79C9.74689 122.564 9.75883 122.328 9.73549 122.096C9.96394 114.279 10.2083 106.455 10.4049 98.6386C10.5271 93.8209 10.8405 88.9962 10.4049 84.1715C9.81515 77.6391 8.46574 71.4538 5.76689 65.8447C5.65001 65.6087 5.53844 65.3773 5.43218 65.1505C5.36278 65.0095 5.33477 64.8405 5.35332 64.6746C5.37188 64.5087 5.43574 64.3571 5.53313 64.248C5.58702 64.1786 5.65163 64.1251 5.72263 64.091C5.79362 64.0569 5.8694 64.043 5.94484 64.0502C6.02029 64.0574 6.09365 64.0856 6.16009 64.1329C6.22652 64.1802 6.28446 64.2454 6.33003 64.3243C6.6233 64.799 6.88795 65.3027 7.12162 65.8308C10.6599 73.7377 11.9031 82.3527 11.7437 91.4051C11.664 95.1745 11.5365 98.9441 11.4355 102.714C11.3133 107.372 11.2124 112.03 11.0743 116.688C10.8511 124.012 10.6067 131.328 10.373 138.645C10.272 141.748 10.373 144.893 10.0224 147.948C9.05899 156.236 8.29574 164.553 7.73259 172.897C7.20132 180.917 6.82589 188.947 6.6063 196.986C6.38671 204.701 6.24505 212.413 6.18129 220.123C6.10691 227.76 6.15473 235.333 6.27692 242.942C6.34598 247.156 6.48411 251.383 6.37786 255.59C6.15473 264.524 6.00066 273.459 6.04316 282.393C6.04316 283.892 6.04316 285.392 6.08035 286.891C6.08035 287.35 6.11222 287.801 6.50536 287.988C6.8985 288.176 7.03663 287.836 7.26507 287.551C7.49352 287.266 7.66883 286.982 7.85477 286.683C9.09795 284.712 10.3358 282.726 11.5737 280.762C13.3055 278.049 14.1662 274.566 13.975 271.043C13.7359 264.33 13.6509 257.617 13.6934 250.911C13.7253 245.253 13.8581 239.596 13.89 233.931C13.9179 226.267 14.5841 218.63 15.877 211.154C17.0617 204.337 18.3739 197.562 19.1602 190.641C19.3094 188.652 19.6011 186.686 20.0315 184.768L25.2433 165.289C25.3298 164.918 25.4455 164.559 25.5886 164.22C25.671 163.971 25.8072 163.76 25.9804 163.611C26.1536 163.463 26.3563 163.383 26.5635 163.383C26.7706 163.383 26.9733 163.463 27.1465 163.611C27.3197 163.76 27.4559 163.971 27.5383 164.22C27.7153 164.663 27.8594 165.128 27.9686 165.608C29.4539 170.926 30.6957 176.355 31.6875 181.866C32.9898 188.82 33.9481 195.876 34.5564 202.991C35.0877 209.287 35.2364 215.611 35.3321 221.935C35.5818 238.429 35.4117 254.91 34.7158 271.376C34.6427 272.544 34.8368 273.713 35.2736 274.736C36.2108 276.981 37.3878 279.04 38.7694 280.852C39.474 281.738 40.1143 282.707 40.682 283.747C41.1434 284.617 41.7298 285.362 42.4086 285.94C42.7273 286.218 43.0514 286.523 43.4711 286.225C43.8908 285.926 43.8483 285.406 43.843 284.906C43.843 284.628 43.843 284.351 43.843 284.073C43.7686 280.852 43.6305 277.638 43.6358 274.424C43.6358 266.556 43.781 258.688 44.0715 250.821C44.3371 243.337 44.5443 235.854 44.9427 228.377C45.474 218.575 45.6706 208.759 45.814 198.943C45.8778 194.084 45.8512 189.287 45.7662 184.455C45.6546 178.208 45.5537 172.029 45.3412 165.816C45.0472 157.486 44.6098 149.183 44.029 140.908C43.7474 136.875 43.4339 132.842 43.0142 128.829C42.5067 124.491 41.6263 120.241 40.3897 116.16C39.1509 111.96 38.6076 107.465 38.7959 102.97C38.9659 98.8677 38.9766 94.758 38.9766 90.6484C38.9766 83.9841 38.9766 77.3267 38.9766 70.6624C38.9766 68.8019 39.0669 66.9346 39.7735 65.324C40.5332 63.6024 40.2463 62.3737 39.3485 60.895C36.4362 55.9678 33.0811 51.5161 29.3553 47.6359C28.5876 46.9285 27.9715 45.9757 27.566 44.8685C27.1605 43.7613 26.979 42.5367 27.0389 41.3117C27.0389 40.7564 27.0761 40.201 27.0761 39.6526C27.1226 38.4337 27.0871 37.2118 26.9699 36.0011C26.8265 36.0155 26.6853 36.0552 26.5502 36.119C24.3932 37.6602 22.0875 36.9452 20.4087 34.6543C19.8508 33.9046 19.208 33.2659 18.5971 32.5717C18.4058 32.7938 18.4483 33.2659 18.4058 33.6894C18.2414 35.3481 17.9368 36.9778 17.4973 38.5487C16.4149 42.431 14.5588 45.8652 12.1209 48.4967C9.05546 51.8774 6.54256 55.8551 5.08688 60.77C3.03086 67.712 1.73986 74.8554 1.75049 82.3458C1.75049 92.1201 1.75049 101.887 1.75049 111.662C1.72696 112.941 2.04224 114.192 2.64302 115.202C4.44934 118.396 6.8985 120.936 9.46454 123.415ZM29.5093 16.7093C29.5314 13.821 29.2852 10.9398 28.7762 8.12899C28.499 6.4876 27.7347 5.05701 26.6511 4.15124C25.2123 2.87169 23.583 2.00349 21.8697 1.6035C20.6663 1.32575 19.4269 1.64317 18.3927 2.49396C17.3586 3.34475 16.6039 4.66801 16.2754 6.20604C16.0947 7.11777 15.9668 8.046 15.8929 8.98284C15.5104 13.148 15.2713 17.2646 16.0257 21.3882C16.8126 26.2514 18.7602 30.663 21.5881 33.9879C23.7132 36.4454 26.2845 35.6123 27.294 32.1552C28.7232 27.2174 29.4732 21.9883 29.5093 16.7093ZM43.5933 124.872C44.1246 124.47 44.1246 123.81 44.2946 123.262C45.984 117.063 46.255 110.669 45.7184 104.206C45.1163 96.9217 44.3849 89.6603 43.5242 82.4221C42.892 77.1046 42.2279 71.794 41.2504 66.5597C41.1813 66.2126 41.2504 65.7683 40.8307 65.6364C40.4936 66.4684 40.2689 67.3703 40.1666 68.3022C39.8372 70.5653 40.0763 72.8422 40.0763 75.1122C40.0763 82.2162 40.048 89.3224 39.9913 96.431C39.9913 98.59 39.9276 100.756 39.9169 102.922C39.9169 105.914 39.7735 108.927 40.4854 111.842C40.8095 113.161 41.1548 114.473 41.5054 115.785C42.3023 118.756 42.9611 121.79 43.5933 124.872Z" fill="white"/>
</svg>
