<svg width="46" height="302" viewBox="0 0 46 302" fill="none" xmlns="http://www.w3.org/2000/svg">
<path d="M21.2874 182.08C20.9049 185.218 20.5171 188.161 20.1824 191.105C19.3996 197.964 18.7426 204.845 18.2114 211.75C17.673 218.549 17.2267 225.354 16.8726 232.167C16.5166 239.199 16.2457 246.238 16.0916 253.284C15.911 261.83 15.7835 270.375 15.8472 278.928C15.8472 280.42 15.9216 281.92 15.9216 283.419C15.9491 284.941 15.5156 286.416 14.7156 287.522C11.8467 291.472 8.87164 295.297 5.45557 298.428C4.52112 299.3 3.51415 300.031 2.45389 300.608C2.10351 300.807 1.73323 300.94 1.35415 301.003C1.19557 301.036 1.03313 301.013 0.883926 300.935C0.734719 300.858 0.604279 300.729 0.506372 300.563C0.408466 300.396 0.346718 300.199 0.327623 299.99C0.308528 299.782 0.332793 299.571 0.397875 299.379C0.532908 298.913 0.694514 298.46 0.881332 298.025C1.93094 295.236 2.84476 292.364 3.61737 289.424C3.9596 288.168 4.13043 286.843 4.12208 285.509C4.05833 276.345 3.99988 267.187 3.94675 258.033C3.91488 253.173 3.84582 248.369 3.82457 243.545C3.79269 235.77 3.82458 227.995 3.76614 220.219C3.61207 202.448 3.68643 184.683 3.71831 166.912C3.71831 158.033 3.82458 149.154 4.06365 140.276C4.16459 136.569 3.99459 132.841 3.93615 129.127C3.88833 126.35 3.81925 123.573 3.78206 120.796C3.65987 112.862 3.55895 104.927 3.43675 96.9922C3.23487 84.3948 3.20474 71.7928 3.34642 59.1862C3.33712 58.1022 3.50155 57.0278 3.82911 56.0319C4.15667 55.0359 4.64012 54.1407 5.24837 53.4035C8.52099 49.2869 11.7405 45.0731 14.8697 40.783C15.4978 39.9468 15.9356 38.8989 16.1341 37.7563C16.1812 37.6061 16.2047 37.4451 16.2034 37.2828C16.2021 37.1205 16.1759 36.9602 16.1264 36.8114C16.0768 36.6626 16.005 36.5282 15.9151 36.4162C15.8252 36.3043 15.719 36.217 15.6028 36.1596C14.3377 35.3608 13.1874 34.2829 12.2027 32.9732C11.3194 31.8343 10.7037 30.3891 10.4282 28.808C9.95869 25.747 8.95314 22.8696 7.49035 20.4013C6.71904 19.1219 6.32499 17.5231 6.37998 15.8959C6.3554 12.8351 6.79601 9.79831 7.67628 6.96161C8.47849 4.4972 9.61542 2.35909 11.6077 1.33861C12.8654 0.622406 14.2586 0.415484 15.6072 0.744664C16.9558 1.07384 18.1979 1.92394 19.173 3.18512C21.6115 6.05911 23.0459 9.74532 23.9916 13.7925C24.8799 17.6796 25.3449 21.7109 25.3729 25.7674C25.3486 27.6069 25.8018 29.4029 26.6585 30.8628C27.6148 32.4873 28.4383 34.2436 29.3414 35.9236C30.3752 37.7665 31.6881 39.3119 33.1985 40.4637C35.8514 42.5865 38.7939 44.0174 41.8635 44.6774C43.521 45.0523 44.2967 46.2186 44.6314 48.197C44.8241 49.4499 44.9272 50.7234 44.9395 52.0012C45.2424 64.712 45.1574 77.4297 45.1414 90.1405C45.1414 95.9093 45.0033 101.685 44.9395 107.454C44.913 110.092 44.3764 112.612 43.877 115.132C43.049 119.787 41.7689 124.285 40.0678 128.516C39.2575 130.669 38.0464 132.521 36.5455 133.903C36.3868 134.03 36.2551 134.207 36.1623 134.418C36.0695 134.629 36.0186 134.867 36.0142 135.111C35.6211 140.525 34.8932 145.906 35.0313 151.362C35.1323 155.465 35.3979 159.56 35.5626 163.656C35.81 170.033 35.6447 176.427 35.0685 182.767C34.8188 185.69 34.6223 188.627 34.5851 191.563C34.3938 206.141 34.3992 220.768 34.4151 235.374C34.4151 243.538 34.4434 251.699 34.5001 259.858C34.5001 262.802 34.6754 265.738 34.6489 268.675C34.6748 273.953 34.2561 279.219 33.4003 284.377C33.2316 285.408 32.9768 286.411 32.6406 287.369C31.6758 290.026 30.8901 292.788 30.2924 295.623C29.9757 297.184 29.4947 298.679 28.8633 300.066C28.6462 300.609 28.3261 301.071 27.9336 301.406C27.7363 301.599 27.5016 301.717 27.256 301.746C27.0103 301.775 26.7633 301.714 26.5427 301.57C26.3221 301.426 26.1365 301.204 26.0069 300.93C25.8772 300.656 25.8085 300.34 25.8085 300.018C25.8085 299.74 25.8085 299.462 25.8085 299.185C25.782 290.41 25.8085 281.635 25.7023 272.861C25.5482 262.878 25.3888 252.895 25.0754 242.913C24.8257 235.152 24.576 227.391 24.22 219.636C23.8534 211.716 23.4019 203.802 22.7909 195.902C22.4615 191.653 22.1056 187.405 21.6859 183.17C21.707 182.958 21.6806 182.742 21.6099 182.548C21.5392 182.355 21.4272 182.192 21.2874 182.08ZM5.18462 133.59C5.46935 133.217 5.6459 132.727 5.68401 132.202C8.60069 115.993 10.3432 99.5747 10.0245 82.9139C9.9819 77.6954 9.62664 72.4891 8.96194 67.343C8.43067 63.7124 8.10129 59.9498 6.0134 57.0688C5.95305 57.0067 5.90371 56.9283 5.86881 56.8389C5.83391 56.7494 5.81428 56.6512 5.81125 56.5509C5.80822 56.4506 5.82187 56.3506 5.85127 56.2579C5.88066 56.1651 5.92511 56.0819 5.98152 56.0137C6.27372 55.5972 6.5978 55.7707 6.87937 56.0831C7.44851 56.7529 7.90915 57.5649 8.2341 58.4711C8.95494 60.425 9.46623 62.4993 9.75353 64.6356C10.7638 71.733 11.2725 78.9367 11.273 86.1558C11.2727 93.9281 10.8644 101.691 10.051 109.391C9.28028 117.813 8.0895 126.162 6.48624 134.382C5.95497 137.159 5.21119 139.88 5.18994 142.83C5.11025 152.042 4.89241 161.254 4.90835 170.466C4.94023 196.152 4.82335 221.879 5.11023 247.585C5.20586 256.408 5.16336 265.238 5.21118 274.069C5.21118 277.54 5.3068 281.059 5.37587 284.551C5.42899 286.437 5.21464 288.32 4.74366 290.105C4.02113 292.777 3.18703 295.387 2.28388 297.956C2.18273 298.123 2.10846 298.314 2.06555 298.52C2.02264 298.725 2.01198 298.939 2.03419 299.15C2.99066 298.724 3.8878 298.098 4.69054 297.296C7.49504 294.685 10.1013 291.728 12.4736 288.466C14.944 285.217 14.9228 285.106 14.8591 280.538C14.6997 269.32 14.8041 258.109 15.1725 246.905C15.5603 235.207 16.1766 223.531 17.101 211.882C17.9085 201.664 18.9392 191.494 20.2567 181.337C20.3683 180.463 20.5064 179.595 20.6658 178.734C20.7072 178.456 20.8277 178.208 21.0031 178.04C21.1785 177.873 21.3958 177.799 21.6115 177.832C21.8272 177.841 22.0331 177.952 22.1906 178.145C22.348 178.338 22.4463 178.599 22.4668 178.88C22.4668 179.095 22.5093 179.317 22.5306 179.574C22.929 183.739 23.3806 187.905 23.7259 192.125C24.5122 201.782 25.0701 211.466 25.511 221.164C26.1538 235.339 26.5311 249.536 26.7807 263.739C26.9508 273.673 26.9667 283.607 27.0464 293.541C27.0464 295.373 27.0464 297.206 27.0464 299.039C27.0464 299.386 26.9029 299.83 27.3173 300.066C27.7863 299.601 28.1379 298.962 28.3267 298.234C28.8445 296.773 29.2589 295.253 29.5646 293.694C29.9574 291.704 30.5075 289.773 31.2062 287.932C31.8985 286.085 32.38 284.116 32.6353 282.086C33.1235 278.704 33.3954 275.274 33.4482 271.833C33.5066 265.12 33.4482 258.4 33.3472 251.701C33.2729 246.481 33.2994 241.288 33.2675 236.047C33.2197 227.217 33.2994 218.394 33.3366 209.564C33.3366 204.704 33.3897 199.907 33.4163 195.076C33.3904 191.468 33.5269 187.861 33.8254 184.274C34.6635 175.175 34.7668 165.987 34.1335 156.86C33.7959 151.823 33.8546 146.754 34.3088 141.733C35.1429 132.917 35.7432 124.08 36.2161 115.222C36.6836 106.475 37.0183 97.7212 37.1617 88.9534C37.3211 79.5193 37.8311 70.1129 38.3146 60.6996C38.3465 60.0748 38.2349 59.1445 38.9893 59.2486C39.7437 59.3528 39.4887 60.2136 39.4568 60.8592C39.17 66.8988 38.8724 72.9313 38.6015 78.9708C38.2137 87.6136 38.2562 96.2703 37.8471 104.913C37.4858 112.501 37.1458 120.088 36.5933 127.662C36.487 129.05 36.418 130.508 36.3276 132.001C36.5251 131.955 36.713 131.856 36.8795 131.711C37.046 131.565 37.1874 131.375 37.2946 131.154C37.9723 130.156 38.5622 129.061 39.0531 127.891C40.6444 123.966 41.8545 119.796 42.6551 115.479C43.2289 112.702 43.8239 109.925 43.8664 106.989C43.9461 101.22 44.0204 95.4512 44.0364 89.6754C44.0683 78.353 44.0736 67.0237 43.9089 55.7013C43.9311 53.5909 43.8495 51.4808 43.6645 49.3841C43.3935 47.0516 43.0748 46.6073 41.3428 46.1352C38.7539 45.4763 36.2496 44.3404 33.9051 42.7614C31.7126 41.3797 29.8121 39.3182 28.3692 36.7567C27.498 35.1114 26.6851 33.4105 25.7554 31.8278C24.7511 30.0961 24.2199 27.9746 24.2466 25.8022C24.253 20.8005 23.5038 15.8464 22.0418 11.224C21.2154 8.58955 19.961 6.22099 18.3654 4.28201C17.4596 3.12913 16.2871 2.40037 15.0311 2.2095C13.775 2.01862 12.5059 2.37635 11.4217 3.22681C10.4509 4.04509 9.67003 5.19509 9.16383 6.55205C7.98777 9.6516 7.43905 13.0931 7.57002 16.5485C7.59694 17.6723 7.91755 18.7503 8.4785 19.6029C9.96926 22.0444 10.9896 24.918 11.4536 27.982C11.7976 30.0016 12.6928 31.7883 13.9718 33.008C14.7968 33.8868 15.7081 34.6175 16.6813 35.1808C16.9215 35.2915 17.1249 35.5078 17.2567 35.7926C17.3885 36.0775 17.4405 36.4133 17.4038 36.7428C17.4099 38.547 16.8871 40.2858 15.9428 41.6021C14.8803 43.0877 13.7859 44.5871 12.6755 46.045C10.4548 48.9513 8.22171 51.8416 5.97621 54.7156C5.53103 55.2717 5.17641 55.9396 4.93358 56.6792C4.69074 57.4188 4.56471 58.2148 4.56304 59.0196C4.38241 66.8432 4.37708 74.6668 4.4727 82.4904C4.58958 92.4244 4.62148 102.358 4.82336 112.292C4.95087 119.304 5.04118 126.35 5.18462 133.59Z" fill="white"/>
</svg>
