<svg width="58" height="313" viewBox="0 0 58 313" fill="none" xmlns="http://www.w3.org/2000/svg">
<path d="M26.8028 313C26.4946 312.555 26.0325 312.597 25.6553 312.354C25.0282 312.011 24.4607 311.506 23.9871 310.869C21.3135 306.912 18.4343 303.201 15.3699 299.761C15.0903 299.487 14.8792 299.11 14.7629 298.679C14.6466 298.248 14.6304 297.782 14.7164 297.339C15.6196 289.55 16.3102 281.719 16.8734 273.875C17.4365 266.03 18.0422 258.186 18.5628 250.341C19.0675 242.657 19.4819 234.958 19.9494 227.273C20.308 222.577 20.457 217.858 20.3957 213.139C20.2044 206.655 20.0716 200.165 19.7635 193.702C19.4925 187.884 19.2322 182.067 18.8922 176.257C18.5362 170.064 18.1378 163.865 17.7234 157.68C17.3781 152.536 17.0168 147.399 16.5918 142.269C16.2358 137.965 15.8214 133.667 15.7099 129.336C15.6171 128.508 15.3206 127.743 14.8652 127.156C10.8281 120.217 7.11831 112.963 3.75631 105.434C2.90628 103.511 2.1253 101.54 1.2859 99.61C0.0852269 96.8332 -0.132592 93.8204 0.0586647 90.7451C0.637749 81.3387 2.51313 72.2933 4.64353 63.3242C4.99604 61.8448 5.51339 60.4414 6.1789 59.159C9.77261 52.3373 14.0382 46.1637 18.8656 40.7975C19.4539 40.2079 19.9301 39.449 20.2572 38.5797C20.5843 37.7103 20.7535 36.7541 20.7516 35.7854C20.7516 33.6264 20.9429 31.4674 21.0598 29.3085C21.1147 28.6998 21.0697 28.0827 20.9277 27.4986C20.7857 26.9144 20.55 26.3765 20.2363 25.9208C17.7659 22.4498 16.6237 18.1874 16.1455 13.5987C15.8519 11.3051 15.7947 8.97029 15.9755 6.65676C16.5068 1.5544 20.1672 -1.24319 23.8117 0.700566C25.9274 1.89209 27.8131 3.685 29.3316 5.94875C32.7583 10.8081 34.5274 16.6741 35.489 23.0399C35.7989 24.8345 35.8116 26.6948 35.5262 28.4963C35.391 29.5149 35.0409 30.4639 34.5152 31.2366C33.9896 32.0092 33.3094 32.5748 32.5511 32.8697C31.6373 33.2515 31.7064 33.2932 31.6692 35.0009C31.6692 36.0631 32.0995 36.2644 32.7318 36.4935C37.1157 38.0733 41.3195 40.4078 45.2325 43.4355C47.0296 44.8164 48.6937 46.4735 50.1893 48.3712C51.2881 49.7668 52.1614 51.4364 52.7573 53.2811C53.3532 55.1258 53.6597 57.1081 53.6585 59.1105C53.7762 62.2154 54.0513 65.3067 54.4819 68.3641C55.1992 74.5633 56.1448 80.7278 56.5433 86.9756C57.0488 93.4935 57.1536 100.054 56.8567 106.594C56.8204 107.427 56.6692 108.246 56.4104 109.009C55.456 111.865 54.2045 114.535 52.6916 116.944C52.2658 117.552 52.0322 118.348 52.0381 119.173C51.9531 124.944 51.8097 130.71 51.6078 136.472C51.4112 142.296 50.9331 148.093 50.7046 153.91C50.5311 158.339 50.3735 162.773 50.2318 167.211C49.9821 174.847 49.9662 182.414 50.0246 190.022C50.1238 194.795 50.0263 199.571 49.7324 204.33C49.3127 210.015 48.8824 215.701 48.3936 221.386C47.8659 227.505 47.2974 233.618 46.6882 239.727C45.9126 247.368 45.1015 255.004 44.255 262.636C43.32 270.924 42.3903 279.213 41.2958 287.46C40.8018 291.188 40.9558 294.86 41.0993 298.567C41.0736 299.011 41.1525 299.455 41.3253 299.838C41.4982 300.222 41.7567 300.527 42.0662 300.712C42.3743 300.893 42.6346 301.205 42.9375 301.407C43.2168 301.551 43.4492 301.817 43.5955 302.16C43.7417 302.503 43.7926 302.902 43.7397 303.288C43.6841 303.7 43.5347 304.081 43.3111 304.381C43.0874 304.68 42.7999 304.885 42.4859 304.968C41.421 305.261 40.3148 305.164 39.2898 304.686C38.2649 304.208 37.3612 303.369 36.6791 302.261C36.0394 301.232 35.5545 300.054 35.25 298.79C34.5593 295.367 33.0824 292.542 31.4248 289.848C30.6689 288.72 30.1096 287.391 29.7858 285.953C29.4619 284.514 29.3813 283.001 29.5495 281.518C29.8257 278.741 29.8948 275.964 30.0382 273.188C30.0648 272.695 30.0382 272.195 30.0382 271.355C29.507 274.014 29.2891 276.422 28.9438 278.79C28.455 282.115 28.0725 285.461 27.5519 288.779C27.1162 291.556 27.1481 294.409 26.8028 297.207C26.8107 297.315 26.8107 297.424 26.8028 297.533C26.3937 299.22 26.8028 300.483 27.6794 301.851C29.2413 304.274 29.6292 307.335 29.7407 310.431C29.7424 310.764 29.6886 311.094 29.5831 311.397C29.4776 311.701 29.3229 311.97 29.1297 312.188C28.8907 312.507 28.4922 312.535 28.3541 313H26.8028ZM42.624 303.142C42.0942 302.501 41.5031 301.953 40.8655 301.511C40.6613 301.376 40.4846 301.18 40.3498 300.939C40.2149 300.697 40.1258 300.418 40.0898 300.122C39.7976 296.36 39.5586 292.604 39.9889 288.835C40.8655 281.435 41.7846 274.041 42.6452 266.62C43.5059 259.199 44.3188 251.688 45.0891 244.212C45.7585 237.732 46.3765 231.235 46.9432 224.718C47.4745 218.818 47.9261 212.917 48.3883 207.003C48.8307 201.984 49.0188 196.934 48.9514 191.883C48.7602 183.608 48.9036 175.34 49.0789 167.072C49.2543 158.804 49.759 150.571 50.2052 142.317C50.9277 128.919 51.0659 115.486 50.8321 102.054C50.7949 99.971 50.7843 97.8398 50.7152 95.7294C50.4815 88.4126 50.184 81.0958 49.7483 73.7997C49.6941 72.9693 49.7925 72.1339 50.0352 71.3631C50.9017 68.5314 51.6119 65.6221 52.1603 62.6578C52.4706 61.098 52.5731 59.48 52.4631 57.8748C52.1445 54.131 50.7019 50.7055 48.452 48.3504C45.9916 45.6971 43.2682 43.4904 40.3555 41.7902C37.5842 40.0936 34.702 38.7252 31.7436 37.7014C30.612 37.3126 30.6067 37.2779 30.5907 35.7993C30.5907 34.9663 30.5907 34.1332 30.5907 33.3001C30.5907 31.9117 30.5907 31.9117 31.6055 31.5924C33.4437 31.0371 34.2618 29.85 34.5009 27.3717C34.6437 25.6573 34.5446 23.9232 34.2087 22.2555C33.2046 16.7019 31.6161 11.4537 28.5985 7.1497C27.1222 4.98091 25.3117 3.24441 23.2858 2.05422C20.0982 0.214592 17.1018 3.74809 17.0752 7.19826C16.9976 9.64035 17.1044 12.0865 17.394 14.5012C17.9253 18.3818 18.9878 21.9708 21.1129 24.9142C21.495 25.4403 21.7896 26.0641 21.9779 26.7463C22.1663 27.4286 22.2444 28.1544 22.2073 28.8781C22.101 31.4813 22.0001 34.0846 21.8779 36.6878C21.8394 37.6297 21.648 38.5501 21.3164 39.3879C20.9848 40.2257 20.5207 40.9617 19.9547 41.5472C17.9526 43.7852 16.0409 46.158 14.2276 48.6558C11.7955 51.9184 9.56765 55.4307 7.56551 59.159C7.19893 59.8532 7.03424 60.2837 7.66645 60.9293C9.43426 62.8683 10.7702 65.3932 11.5341 68.2392C12.3776 71.0322 12.8015 74.0114 12.7826 77.0139C12.6826 82.9044 13.2721 88.7803 14.5305 94.4382C15.8037 100.313 16.4806 106.382 16.544 112.487C16.6343 116.542 16.6343 120.596 16.698 124.643C16.799 130.807 17.309 136.93 17.8137 143.053C18.5681 152.265 19.1578 161.505 19.721 170.745C20.4807 183.24 21.0916 195.736 21.4104 208.294C21.5919 212.061 21.6221 215.838 21.5007 219.609C21.1554 225.857 20.8101 232.105 20.4382 238.353C20.0822 244.33 19.7316 250.307 19.3172 256.27C18.7824 263.957 18.2122 271.635 17.6065 279.303C17.1549 285.1 16.629 290.89 15.9543 296.658C15.864 297.103 15.8753 297.573 15.9867 298.01C16.098 298.446 16.3047 298.831 16.5812 299.116C19.501 302.429 22.2551 305.984 24.8265 309.758C25.1653 310.259 25.5824 310.66 26.0498 310.933C26.5172 311.206 27.024 311.345 27.5359 311.341C28.2532 311.341 28.5985 310.945 28.556 310.042C28.4019 307.168 27.9928 304.288 26.3884 302.226C25.972 301.746 25.6686 301.121 25.5134 300.424C25.3582 299.727 25.3577 298.987 25.5118 298.29C26.0006 295.027 25.9156 291.66 26.4362 288.39C26.8665 285.676 27.1959 282.934 27.5678 280.206C28.9066 270.422 30.1462 260.622 31.2867 250.807C32.073 244.01 32.7955 237.193 33.4118 230.355C34.0774 223.475 34.4729 216.553 34.5965 209.62C34.5757 209.289 34.6128 208.957 34.7048 208.648C34.7968 208.339 34.9415 208.061 35.1278 207.836C37.3113 205.406 37.9966 202.24 37.986 198.61C37.9488 186.808 37.986 175.062 37.986 163.289C37.986 162.699 37.7363 161.741 38.4907 161.692C39.2451 161.644 39.0698 162.595 39.0698 163.199C39.0698 175.528 39.0698 187.854 39.0698 200.179C39.0859 201.71 38.8581 203.229 38.4008 204.639C37.9435 206.05 37.2667 207.32 36.4135 208.37C36.193 208.618 36.0168 208.926 35.8975 209.273C35.7781 209.62 35.7185 209.996 35.7228 210.376C35.5391 218.81 34.9875 227.224 34.0706 235.576C33.4224 242.067 32.8486 248.571 32.413 255.097C32.0411 260.734 31.6267 266.364 31.2601 272.007C31.0264 275.652 30.867 279.31 30.6385 282.962C30.57 283.789 30.6286 284.626 30.8111 285.424C30.9936 286.222 31.2961 286.963 31.7011 287.606C32.4236 288.765 33.0399 290.043 33.704 291.264C34.767 293.07 35.5716 295.111 36.0788 297.29C36.38 298.809 36.9231 300.229 37.6726 301.455C38.2495 302.395 39.0427 303.066 39.9346 303.37C40.8265 303.674 41.7696 303.594 42.624 303.142ZM15.4549 125.316C15.4549 121.679 15.4921 118.131 15.4549 114.584C15.4182 109.535 15.0341 104.5 14.3073 99.5406C13.8451 96.4931 13.0642 93.5497 12.5648 90.516C11.7785 85.7746 11.6882 80.95 11.6138 76.1253C11.5975 71.471 10.3195 66.9748 8.00647 63.4353C7.59972 62.7462 7.09001 62.1723 6.50829 61.7485C6.17838 62.1451 5.96112 62.676 5.89201 63.2548C4.64353 68.378 3.50661 73.5498 2.63533 78.8049C1.84905 83.5254 1.20089 88.2668 1.25402 93.1262C1.2599 95.2362 1.66119 97.3121 2.42282 99.1726C6.05938 107.958 10.1824 116.385 14.7589 124.386C14.9448 124.719 15.0564 125.177 15.4549 125.316ZM52.9785 65.8095H52.7128C52.1815 68.0934 51.5865 70.3287 50.9384 72.5432C50.8324 73.024 50.816 73.531 50.8906 74.0218C51.2802 80.2095 51.5653 86.404 51.7459 92.6056C51.9584 99.7003 52.1072 106.795 52.054 113.89C52.054 114.272 51.9159 114.744 52.2506 115.07C53.5727 112.876 54.6594 110.456 55.4807 107.878C55.5655 107.507 55.6189 107.125 55.6401 106.739C56.1395 100.637 55.7251 94.5563 55.4754 88.4682C55.3107 84.4835 54.7369 80.5542 54.2854 76.6042C53.8763 72.9875 53.4141 69.3985 52.9785 65.8026V65.8095Z" fill="white"/>
</svg>
