<svg width="46" height="244" viewBox="0 0 46 244" fill="none" xmlns="http://www.w3.org/2000/svg">
<path d="M24.1995 153.02C24.0029 154.582 23.7851 156.151 23.6098 157.719C22.9138 163.815 22.016 169.861 21.4103 175.97C20.8153 181.912 20.3478 187.875 20.0343 193.853C19.712 200.114 19.5704 206.38 19.6093 212.651C19.6572 219.482 19.8696 226.299 20.3903 233.096C20.4483 233.869 20.2772 234.641 19.9122 235.255C17.904 239.01 15.1307 241.301 11.8209 242.655C11.303 242.885 10.7692 243.051 10.2271 243.148C9.76177 243.25 9.2839 243.185 8.84496 242.958C8.40602 242.732 8.02268 242.353 7.73625 241.863C7.44981 241.373 7.27113 240.79 7.2195 240.178C7.16787 239.565 7.24524 238.945 7.44324 238.385C7.85762 237.044 8.39265 235.771 9.03705 234.595C9.70152 233.295 10.0224 231.747 9.95085 230.187C9.87116 225.327 9.79678 220.531 9.77553 215.699C9.73302 204.147 9.6799 192.603 9.70646 181.052C9.70646 176.393 9.92958 171.721 9.76489 167.07C9.59488 162.135 9.23363 157.22 8.97862 152.291C8.64392 145.647 8.30922 139.004 8.01171 132.353C7.62919 123.711 7.35824 115.061 7.27855 106.404C7.2711 106.05 7.20277 105.703 7.07861 105.388C6.95446 105.073 6.77768 104.799 6.56135 104.586C4.39907 102.069 2.60908 99.0547 1.28053 95.6928C0.396929 93.4037 0.0110075 90.8417 0.164842 88.2858C0.542043 82.0935 0.807701 75.8873 1.1849 69.6881C1.48241 64.8287 1.89147 59.9693 2.45461 55.11C2.62613 53.4572 3.18256 51.9134 4.04842 50.6879C7.27067 45.9603 10.6939 41.4733 14.302 37.2482C14.4437 37.0421 14.6064 36.8622 14.7854 36.7137C16.9105 35.4225 16.4323 32.9511 16.3792 30.688C16.3862 30.604 16.3792 30.5189 16.3586 30.4388C16.3379 30.3586 16.3042 30.2854 16.2597 30.224C16.2152 30.1626 16.1611 30.1145 16.101 30.0831C16.0409 30.0518 15.9763 30.0379 15.9117 30.0425C15.3562 30.0817 14.8023 29.9353 14.3022 29.6171C13.8021 29.2988 13.3723 28.8192 13.0535 28.2237C12.2344 26.7838 11.8096 25.0257 11.8475 23.2323C11.8475 22.2952 11.8475 21.3511 11.8475 20.407C11.7841 16.0765 12.0385 11.748 12.6072 7.48099C12.7188 6.71814 12.8715 5.96654 13.0641 5.23179C13.3874 3.89767 14.0314 2.73537 14.9004 1.91748C15.7695 1.0996 16.8172 0.669715 17.888 0.691703C21.7132 0.622283 24.2208 3.39912 26.1546 7.32828C26.6521 8.51098 26.8157 9.88451 26.6168 11.2088C26.2449 15.2838 25.9899 19.3795 25.7561 23.4753C25.6446 25.4676 25.5171 27.46 25.4161 29.4524C25.3848 30.1482 25.4858 30.8432 25.7101 31.4755C25.9345 32.1078 26.2752 32.6577 26.7018 33.0761C29.0782 35.7671 31.3395 38.6269 33.4755 41.6425C36.3015 45.6405 38.9363 49.8623 41.3648 54.2838C42.5587 56.4469 43.3533 58.9417 43.6865 61.5729C44.4701 67.5449 44.9863 73.5715 45.2325 79.6221C45.4237 83.7248 45.53 87.8276 45.6734 91.9233C45.7092 93.1478 45.5537 94.3689 45.2165 95.5123C43.711 100.911 41.2305 105.755 37.9859 109.632C37.6098 110.063 37.3128 110.598 37.1169 111.199C36.9209 111.8 36.8312 112.451 36.8543 113.103C36.7162 121.371 36.525 129.632 36.3656 137.9C36.3124 140.955 36.3231 144.009 36.2699 147.057C36.0149 162.378 36.0415 177.706 36.0681 193.026C36.0946 205.682 36.3284 218.33 36.8703 230.964C36.9506 232.099 36.8135 233.242 36.4712 234.291C36.129 235.339 35.5924 236.26 34.9099 236.969C32.3712 239.744 29.187 241.31 25.8783 241.412C25.193 241.454 24.6033 241.266 24.2845 240.357C23.9657 239.448 24.2101 238.698 24.9433 237.906C25.8497 236.989 26.7005 235.982 27.4881 234.894C27.975 234.192 28.3057 233.331 28.4444 232.401C28.7919 229.719 28.9785 227.006 29.0022 224.286C29.2838 214.29 28.88 204.314 28.4709 194.338C28.2531 189.243 28.014 184.148 27.6368 179.066C27.0704 170.775 26.1105 162.537 24.7627 154.401C24.683 153.922 24.5554 153.45 24.4492 153.013L24.1995 153.02ZM25.2302 239.67C26.0855 240.169 26.7071 239.809 27.3021 239.704C29.9846 239.311 32.4982 237.797 34.4689 235.386C34.9261 234.845 35.2793 234.171 35.4999 233.419C35.7205 232.666 35.8023 231.856 35.7387 231.055C35.558 227.847 35.4093 224.633 35.3402 221.419C35.1702 212.929 34.963 204.439 34.9311 195.949C34.8886 185.346 34.901 174.744 34.9683 164.141C35.048 151.985 35.218 139.844 35.4199 127.682C35.4837 123.961 35.6006 120.247 35.6537 116.533C35.6909 114.311 35.9193 112.09 35.744 109.882C35.0997 102.381 34.8424 94.8322 34.9736 87.2861C35.0641 81.791 35.53 76.3176 36.3656 70.9308C36.9062 67.2192 37.834 63.6221 39.1229 60.2401C39.3779 59.6014 39.6542 58.9836 39.9729 58.3796C40.1854 57.9423 40.4723 57.5188 40.9026 57.859C41.333 58.1991 41.2001 58.692 40.9717 59.1502L40.8336 59.4279C40.0008 61.1685 39.3302 63.0329 38.836 64.9814C37.3431 70.535 36.7109 76.2691 36.3231 82.0935C35.9343 88.7372 35.9468 95.4105 36.3603 102.052C36.4121 104.239 36.5897 106.418 36.8915 108.57C37.054 108.542 37.2105 108.471 37.3512 108.362C37.4919 108.252 37.6139 108.105 37.7097 107.932C40.5873 104.21 42.8036 99.7069 44.2018 94.7417C44.4425 93.7938 44.547 92.7959 44.5099 91.7983C44.4621 86.689 44.223 81.5936 43.9309 76.526C43.6688 71.3757 43.1721 66.2503 42.4433 61.1772C42.1692 59.267 41.588 57.4545 40.7379 55.8597C36.5686 48.0027 31.6722 40.8491 26.1599 34.5617C25.5092 33.8929 24.9991 33.019 24.6776 32.0221C24.356 31.0252 24.2336 29.9379 24.3217 28.8623C24.6564 22.8852 24.9539 16.9082 25.5011 10.9589C25.6373 9.85056 25.4598 8.71533 25.0017 7.76563C23.8591 5.3232 22.0978 3.48101 20.0237 2.55914C16.8042 1.24016 14.4295 3.30883 13.861 7.11304C13.4861 9.50534 13.2428 11.9296 13.1332 14.3674C13.011 17.526 13.0375 20.6846 13.0747 23.8502C13.1151 25.1924 13.488 26.4811 14.1373 27.5225C14.6685 28.425 15.4017 28.4805 16.188 28.5499C17.0592 28.6263 17.5267 29.3274 17.5692 30.5562C17.6224 32.0487 17.5692 33.5551 17.5692 35.0545C17.5718 35.3306 17.5204 35.6029 17.4201 35.8459C17.3197 36.0888 17.1735 36.2943 16.9955 36.4429C12.6231 40.8233 8.91488 46.1062 5.20662 51.3752C4.83473 51.9028 4.48941 52.472 4.14408 53.0482C3.98122 53.3048 3.89206 53.6277 3.89206 53.961C3.89206 54.2944 3.98122 54.6173 4.14408 54.874C6.01415 58.6226 6.88012 62.8503 7.49639 67.1751C8.59081 74.8113 8.65987 82.5169 8.55893 90.2434C8.51643 93.1798 8.42611 96.1163 8.32517 99.0528C8.22423 101.989 8.43674 105.009 8.45799 107.987C8.50049 114.804 8.73956 121.628 8.98926 128.445C9.30802 136.701 9.69407 144.953 10.1474 153.2C10.5618 160.892 11.1356 168.563 10.9018 176.303C10.7318 181.732 10.8434 187.181 10.8274 192.624C10.7885 205.059 10.8788 217.492 11.0984 229.923C11.1961 231.986 10.7663 234.032 9.87647 235.74C9.41705 236.672 9.00017 237.639 8.628 238.635C8.4439 238.981 8.3524 239.396 8.36778 239.817C8.38315 240.238 8.50452 240.64 8.71299 240.961C8.91323 241.291 9.18549 241.535 9.49378 241.658C9.80206 241.782 10.1319 241.781 10.4396 241.655C13.4888 240.751 16.2465 238.628 18.329 235.581C18.671 235.097 18.9262 234.519 19.076 233.89C19.2258 233.26 19.2664 232.596 19.1949 231.943C18.7115 225.869 18.5468 219.767 18.4777 213.665C18.398 206.223 18.6265 198.788 19.0409 191.367C19.3437 185.89 19.7634 180.42 20.3744 174.984C21.0756 168.785 21.8725 162.6 22.6216 156.407C22.7757 155.151 22.9032 153.881 23.0838 152.631C23.1108 152.23 23.2481 151.855 23.4703 151.576C23.6925 151.297 23.9845 151.132 24.2923 151.113C24.6001 151.093 24.9029 151.22 25.1447 151.47C25.3864 151.72 25.5508 152.076 25.6074 152.471C25.7136 152.95 25.7933 153.436 25.8783 153.922C27.5398 163.788 28.6303 173.804 29.1403 183.884C29.6716 193.346 30.1285 202.822 30.2029 212.346C30.256 218.233 30.2932 224.113 29.9531 229.993C29.7619 233.283 28.9278 236.011 26.8399 237.99C26.3246 238.378 25.8783 238.962 25.2302 239.67ZM7.19356 102.808C7.19356 102.267 7.19356 101.739 7.19356 101.205C7.22544 98.3794 7.19357 95.5401 7.29982 92.7216C7.69575 84.5791 7.41429 76.4045 6.46041 68.3413C6.08084 64.8785 5.34269 61.4992 4.26626 58.2963C4.08032 57.7757 4.00061 57.1231 3.4534 56.8594C3.3684 57.4147 3.26746 57.9006 3.22496 58.3935C2.8637 62.9127 2.45462 67.4181 2.16242 71.9582C1.79585 77.8172 1.47708 83.6832 1.29113 89.5561C1.24161 90.5515 1.32798 91.5505 1.54616 92.5064C2.5237 96.6022 4.47344 99.8441 6.80571 102.753C6.85884 102.808 6.96512 102.781 7.19356 102.808Z" fill="white"/>
</svg>
