<svg width="54" height="251" viewBox="0 0 54 251" fill="none" xmlns="http://www.w3.org/2000/svg">
<path d="M24.9965 140.42C24.8318 141.711 24.6618 143.002 24.5077 144.293C23.8596 149.729 23.1902 155.165 23.1265 160.663C23.0415 167.764 23.0308 174.873 23.2061 181.981C23.3496 187.917 23.4824 193.845 23.7374 199.781C24.0172 206.538 24.4086 213.285 24.9115 220.024C25.0868 222.398 25.2728 224.779 25.5225 227.139C25.6237 228.018 25.5802 228.915 25.395 229.77C25.0588 231.548 24.5834 233.277 23.9765 234.928C23.1583 236.941 22.4783 239.031 21.6761 241.051C20.1832 244.827 18.021 247.715 14.9077 249.201C13.6114 249.94 12.1662 250.108 10.7904 249.68C9.48876 249.187 8.9681 247.958 9.5525 246.361C11.6457 240.6 12.0229 234.421 12.1823 228.187C12.3257 222.842 11.8582 217.545 11.497 212.221C11.1888 207.69 10.8948 203.155 10.615 198.614C10.206 191.756 9.79157 184.897 9.43562 178.031C9.09561 171.555 8.82997 165.071 8.53777 158.594C8.18714 151.006 8.00651 143.405 7.95869 135.803C7.88347 131.474 7.99699 127.142 8.29871 122.829C8.37454 122.117 8.50993 121.419 8.70247 120.746C9.53714 117.433 10.1887 114.046 10.6522 110.611C10.7185 110.239 10.7092 109.852 10.6253 109.486C10.5414 109.121 10.3859 108.791 10.1741 108.528C7.62034 104.876 5.43662 100.809 3.67666 96.4284C2.34595 93.1821 1.45618 89.6589 1.04688 86.0154C0.917476 84.4696 0.989324 82.9065 1.25939 81.3921C2.77528 71.4373 4.18313 61.4547 5.48297 51.4443C6.08331 46.814 7.69306 43.1139 10.6522 40.4343C13.3791 37.8734 16.2921 35.6691 19.3491 33.8533C19.6879 33.7146 19.9868 33.4457 20.2067 33.0816C20.4266 32.7175 20.5573 32.2751 20.5817 31.8124C20.757 29.945 21.1979 28.1262 21.2989 26.2588C21.4334 23.7007 21.0925 21.138 20.3054 18.7892C19.3232 16.0094 18.8104 12.986 18.8019 9.92425C18.8166 8.70032 18.9779 7.487 19.28 6.32834C19.7124 4.47049 20.6771 2.90252 21.9729 1.95181C23.2686 1.00109 24.7954 0.74104 26.2344 1.22591C28.5826 1.92011 30.3889 3.6695 31.9721 5.9187C32.6917 6.94069 33.3356 8.04943 33.8953 9.23005C35.303 12.1385 36.4983 15.2134 37.4654 18.4143C37.9039 19.9297 38.0516 21.5623 37.8957 23.1695C37.8123 24.4839 37.4547 25.7432 36.8618 26.8104C36.2688 27.8777 35.4633 28.7122 34.5328 29.223C33.1356 30.0422 32.7052 31.0974 32.7637 32.9717C32.8274 35.1307 32.7318 35.1445 34.23 35.9845C38.2948 38.1383 42.0359 41.2147 45.2804 45.0715C48.0643 48.4939 50.0618 52.4856 50.9012 57.4699C51.7936 62.7823 52.4517 68.1574 52.8722 73.5684C53.4035 80.6979 53.6373 87.8481 53.7223 95.0053C53.7501 96.5893 53.5286 98.1637 53.0717 99.6313C52.6148 101.099 51.9321 102.428 51.0659 103.537C49.6476 105.464 47.9378 106.984 46.0454 108.001C45.7647 108.102 45.5196 108.328 45.352 108.64C45.1844 108.951 45.1047 109.329 45.1263 109.708C45.0626 112.534 44.9244 115.359 44.8182 118.185C44.3826 129.611 43.6282 140.996 42.4328 152.325C41.8325 158.045 40.9452 163.703 40.3502 169.416C39.7339 175.303 39.2399 181.218 38.9583 187.132C38.5014 196.657 38.3845 206.202 38.0923 215.74C37.7629 226.438 37.3645 237.136 36.9926 247.833C36.9858 248.276 36.9521 248.717 36.8917 249.152C36.8526 249.47 36.7471 249.767 36.5868 250.011C36.4265 250.255 36.2176 250.436 35.9833 250.535C35.749 250.633 35.4984 250.645 35.2593 250.569C35.0201 250.493 34.8018 250.331 34.6284 250.103C34.4168 249.832 34.2281 249.532 34.0653 249.208C31.62 244.84 30.0609 239.734 29.5336 234.366C29.4786 233.704 29.4608 233.038 29.4804 232.373C29.4804 225.987 29.4804 219.607 29.3476 213.22C29.0767 200.135 28.7154 187.049 28.0088 173.984C27.4776 164.46 26.8135 154.956 25.8837 145.522C25.7137 143.828 25.4959 142.134 25.3046 140.441L24.9965 140.42ZM35.691 249.298C35.7707 248.652 35.8238 248.395 35.8344 248.132C36.2541 235.83 36.6898 223.529 37.0723 211.221C37.3698 201.502 37.4442 191.784 38.0976 182.127C38.512 175.991 39.0274 169.868 39.8402 163.8C41.0568 154.72 42.0556 145.605 42.6772 136.428C43.3625 126.369 43.7769 116.296 44.085 106.21C44.255 100.705 43.9894 95.2274 43.9735 89.7432C43.9735 80.5798 43.9735 71.4233 44.1435 62.2599C44.1435 61.4894 44.1966 60.7119 44.2285 59.9344C44.2285 59.4484 44.3613 59.0319 44.8076 59.0527C45.2538 59.0735 45.3123 59.5456 45.3388 60.0038C45.3388 60.6147 45.3388 61.2256 45.3388 61.8365C45.2592 67.0013 45.1848 72.1591 45.0944 77.317C44.9404 86.2028 45.3973 95.0747 45.3176 103.954C45.2313 104.878 45.251 105.814 45.376 106.73C47.3216 105.698 49.0699 104.119 50.4975 102.107C51.1957 101.171 51.7412 100.06 52.101 98.8401C52.4608 97.6206 52.6274 96.3184 52.5907 95.0123C52.4791 90.4097 52.4366 85.8072 52.2135 81.2046C51.8818 74.003 51.1897 66.8374 50.1415 59.7539C49.4243 55.0055 48.0164 50.7292 45.3601 47.2999C44.3156 45.9149 43.1933 44.6341 42.0025 43.468C39.0817 40.6852 35.8955 38.4121 32.5246 36.7064C31.5099 36.1719 31.5205 36.158 31.5843 34.7696C31.648 33.3813 31.7543 32.1039 31.7118 30.778C31.6693 29.4521 32.0252 28.9939 32.939 28.5565C36.3232 26.9252 37.5345 23.4403 36.3923 18.9697C36.295 18.5446 36.1742 18.1293 36.031 17.727C35.1916 15.5472 34.4372 13.305 33.4809 11.2015C32.7864 9.67347 31.9804 8.23678 31.0742 6.91145C30.0488 5.35543 28.7809 4.10339 27.3554 3.23911C23.7002 1.15651 20.3692 3.78058 20.0451 8.96625C20.0451 9.24393 20.0451 9.52166 20.0185 9.79934C19.891 12.8191 20.5498 15.6097 21.4476 18.3449C22.16 20.5401 22.5216 22.9025 22.5102 25.2869C22.5102 27.7513 21.9311 30.0977 21.708 32.5135C21.5751 33.9574 21.0226 34.5961 20.0823 35.1237C16.8522 36.9754 13.7952 39.3045 10.971 42.0657C8.74017 44.1705 7.24013 47.3466 6.80053 50.8959C5.47235 60.4481 4.10168 69.9864 2.77351 79.5385C2.46785 81.0972 2.27047 82.6887 2.18379 84.2938C2.23495 86.7976 2.63649 89.268 3.36853 91.5829C4.99953 97.2059 7.58149 102.072 10.53 106.64C10.6629 106.841 10.8116 107.07 11.0932 106.883C11.1835 105.751 11.3163 104.599 11.3641 103.412C11.7785 93.6007 12.0335 83.787 12.1292 73.971C12.1664 69.5837 12.1292 65.1964 12.1292 60.7813C12.1292 60.337 12.1292 59.8927 12.177 59.4553C12.185 59.3154 12.2333 59.1846 12.3122 59.0893C12.391 58.994 12.4946 58.9412 12.602 58.9416C12.6646 58.9235 12.7293 58.9222 12.7922 58.9378C12.8552 58.9534 12.9151 58.9855 12.9683 59.0323C13.0214 59.079 13.0668 59.1394 13.1015 59.2097C13.1363 59.2801 13.1597 59.3589 13.1704 59.4414C13.2157 59.9367 13.237 60.4352 13.2342 60.934C13.2767 73.3671 13.1598 85.7933 12.7029 98.2195C12.4267 106.244 11.6935 114.123 9.65876 121.746C9.52101 122.271 9.43531 122.817 9.40375 123.37C9.29218 125.453 9.17531 127.466 9.13281 129.521C8.95749 139.129 9.29219 148.722 9.66408 158.302C10.0891 169.224 10.6452 180.13 11.3323 191.02C11.8635 199.649 12.3364 208.285 12.9792 216.9C13.4973 223.249 13.4706 229.655 12.8995 235.997C12.5648 239.419 12.1079 242.828 10.9072 245.931C10.2325 247.687 10.5832 248.173 12.007 248.27C12.5171 248.3 13.0277 248.227 13.5211 248.055C15.0084 247.561 16.3906 246.633 17.5641 245.341C19.1977 243.467 20.4716 241.118 21.2829 238.482C21.5081 237.701 21.7762 236.943 22.0852 236.212C22.9218 234.281 23.5918 232.235 24.0827 230.11C24.3726 228.995 24.4581 227.806 24.3324 226.639C24.1359 224.557 23.9765 222.474 23.8012 220.35C22.8714 209.09 22.4305 197.788 22.1383 186.473C21.9205 178.094 21.8992 169.715 21.9577 161.329C21.9577 159.559 22.0586 157.782 22.1808 156.012C22.5633 150.541 23.1902 145.106 23.8808 139.691C24.0296 138.539 24.1996 137.4 24.359 136.22C24.444 135.616 24.6565 135.172 25.1878 135.192C25.719 135.213 25.8519 135.595 25.9369 136.137C25.9847 136.463 26.0537 136.782 26.0963 137.115C26.7019 142.044 27.2438 146.987 27.6635 151.95C28.3488 160.059 28.8589 168.181 29.2839 176.324C29.8576 187.341 30.1764 198.371 30.4261 209.409C30.5855 216.511 30.6227 223.62 30.5908 230.721C30.5828 235.232 31.3891 239.682 32.9443 243.71C33.6258 245.754 34.5551 247.641 35.6963 249.298H35.691Z" fill="white"/>
</svg>
