<svg width="1112" height="535" viewBox="0 0 1112 535" fill="none" xmlns="http://www.w3.org/2000/svg">
<g style="mix-blend-mode:lighten" opacity="0.2">
<path fill-rule="evenodd" clip-rule="evenodd" d="M90.5972 1076.66C90.4955 1076.51 90.1026 1075.96 89.7883 1075.31C88.7974 1073.24 87.4276 1069.48 85.9298 1065.04C81.7678 1052.7 76.6473 1035.09 75.8491 1032.7C70.8843 1017.84 69.0429 998.483 68.7948 977.311C68.2586 931.656 75.128 877.603 74.7658 841.206C74.7597 840.608 74.5131 840.131 74.2157 840.141C73.9168 840.153 73.6795 840.649 73.6857 841.25C74.0231 877.656 67.1167 931.699 67.6222 977.364C67.8625 999.034 69.7733 1018.83 74.8444 1034.05C75.7474 1036.76 82.1623 1058.88 86.4845 1070.91C87.8852 1074.81 89.0948 1077.67 89.8391 1078.62C90.2367 1079.13 90.5818 1079.21 90.8299 1079.07C92.8886 1077.96 94.3031 1073.9 95.1923 1068.49C96.8642 1058.31 96.7686 1043.39 96.7239 1037.77C96.4882 1008.16 96.3556 979.684 97.0706 950.963C97.5422 932.024 98.3819 912.977 99.8042 893.425C107.684 785.301 114.481 673.999 117.577 562.944C119.648 488.611 120.056 414.39 118.047 341.312C117.448 319.517 118.22 296.945 117.713 274.838C117.491 265.226 117.015 255.704 116.116 246.374C116.061 245.773 115.773 245.377 115.474 245.488C115.175 245.6 114.978 246.179 115.033 246.78C115.864 256.023 116.247 265.446 116.435 274.949C116.875 297.072 116.164 319.647 116.76 341.454C119.258 432.542 117.982 525.404 114.448 618.047C110.917 710.603 105.134 802.939 98.5869 893.069C97.1585 912.699 96.3156 931.823 95.8441 950.839C95.1291 979.616 95.2631 1008.14 95.5004 1037.81C95.539 1042.57 95.6283 1054.15 94.5851 1063.63C93.8902 1069.94 92.7591 1075.37 90.5972 1076.66Z" fill="white"/>
<path fill-rule="evenodd" clip-rule="evenodd" d="M72.9026 1094.66C72.7038 1094.49 72.4249 1094.22 72.1999 1093.94C71.1475 1092.61 69.8439 1090.56 68.984 1089.84L60.9898 1083.33C55.8601 1078.81 49.3959 1071.71 44.747 1062.28C41.6251 1055.95 39.3214 1048.57 38.8499 1040.21C37.7188 1020.02 37.3475 999.381 37.3783 978.553C37.4492 930.358 39.6666 881.149 39.5972 834.196C39.4108 709.079 48.0676 600.285 46.5745 488.181C45.6099 415.809 40.4108 342.064 25.937 261.685C25.8353 261.121 25.524 260.827 25.2436 261.032C24.9631 261.236 24.8183 261.859 24.9184 262.422C39.2921 342.585 44.3956 416.106 45.3325 488.246C46.7902 600.335 38.1749 709.107 38.3645 834.203C38.4369 881.153 36.2211 930.355 36.1502 978.547C36.1194 999.471 36.4923 1020.21 37.6295 1040.48C38.1287 1049.39 40.548 1057.28 43.8671 1064.03C48.6239 1073.7 55.2283 1081.02 60.4782 1085.67L68.4925 1092.23C69.5973 1093.15 71.4464 1096.37 72.5066 1097.19C73.1014 1097.66 73.5683 1097.47 73.8456 1096.96C74.0352 1096.61 74.1939 1096.04 74.197 1095.13C74.2833 1067.32 66.5078 1040.64 63.4614 1012.39C62.7202 1005.52 62.2641 998.557 62.2826 991.458C62.3473 966.327 63.6201 940.958 65.5524 915.533C70.0195 856.756 78.0138 797.685 82.8384 740.584C86.3456 699.073 89.4721 658.03 92.1055 616.842C94.7358 575.687 96.8716 534.39 98.4541 492.35C98.4787 491.74 98.2507 491.204 97.9456 491.157C97.642 491.111 97.3754 491.569 97.3523 492.18C95.7282 534.173 93.5324 575.415 90.8789 616.523C88.2239 657.671 85.1113 698.686 81.6011 740.163C76.7672 797.273 68.7652 856.356 64.2904 915.146C62.3458 940.694 61.0668 966.191 60.999 991.442C60.9805 998.734 61.4459 1005.88 62.2055 1012.94C65.2119 1040.85 72.9057 1067.2 72.9026 1094.66ZM72.9026 1095.11C72.8656 1095.18 72.8517 1095.24 72.8964 1095.26C72.918 1095.27 72.9026 1095.17 72.9026 1095.11Z" fill="white"/>
<path fill-rule="evenodd" clip-rule="evenodd" d="M40.1251 476.088C23.0826 440.001 9.62111 396.913 4.34501 351.707C-0.952665 306.324 2.01205 258.798 17.9451 214.082C25.5619 192.705 37.6242 179.627 47.2056 161.723C51.3445 153.988 55.0273 145.368 57.7178 134.842C59.4344 128.13 58.7224 114.891 57.2832 99.2107C54.8239 72.4351 50.3352 38.3338 53.5557 18.3668C55.7269 4.90776 61.5346 -1.65292 74.0238 5.1215C88.7411 13.1133 94.7599 28.8335 96.7908 47.2425C98.8834 66.2121 96.8078 87.9385 95.6921 106.917C94.7229 123.409 94.5195 137.875 98.0544 146.972C106.554 168.847 112.704 186.742 117.159 206.232C121.57 225.539 124.319 246.414 126.042 274.305C127.927 304.633 127.299 333.936 125.044 362.905C122.792 391.787 118.923 420.337 114.223 449.21C114.125 449.811 114.286 450.461 114.587 450.66C114.886 450.858 115.208 450.533 115.308 449.929C120.1 420.972 124.084 392.332 126.389 363.332C128.711 334.125 129.33 304.553 127.447 273.955C125.698 245.72 122.909 224.589 118.43 205.055C113.923 185.398 107.702 167.364 99.1022 145.324C95.7337 136.688 96.0666 122.898 96.9742 107.221C98.0883 87.9695 100.135 65.9333 97.9989 46.7004C95.8709 27.548 89.6579 11.0751 74.3366 2.79211C60.9044 -4.48102 54.7561 3.15144 52.4216 17.6296C49.158 37.8816 53.6236 72.4847 56.1198 99.6412C57.499 114.655 58.3095 127.327 56.6653 133.755C54.0396 144.027 50.44 152.433 46.4013 159.982C36.7613 177.995 24.6466 191.193 16.9851 212.7C0.834792 258.042 -2.18078 306.238 3.20627 352.243C8.54247 397.818 22.1364 441.24 39.3423 477.584C39.5473 478.017 39.8894 478.036 40.1051 477.624C40.3223 477.209 40.3301 476.521 40.1251 476.088Z" fill="white"/>
<path fill-rule="evenodd" clip-rule="evenodd" d="M165.765 873.269C168.195 832.583 169.091 791.92 169.203 751.271C169.467 656.311 165.5 561.426 167.282 466.411C168.416 405.661 176.988 365.126 179.664 310.069C180.646 289.882 180.822 267.75 179.577 241.988C179.547 241.383 179.282 240.941 178.982 240.999C178.681 241.055 178.461 241.591 178.49 242.195C179.666 267.797 179.416 289.774 178.418 309.822C175.674 364.918 167.166 405.509 166.032 466.318C164.268 561.361 168.215 656.271 168.006 751.258C167.917 791.821 167.078 832.4 164.691 873.012C164.656 873.61 164.867 874.149 165.164 874.22C165.46 874.291 165.73 873.867 165.765 873.269Z" fill="white"/>
<path fill-rule="evenodd" clip-rule="evenodd" d="M211.872 166.868C211.878 166.778 211.893 166.54 211.918 166.373C212.023 165.648 212.248 164.715 212.548 163.631C213.767 159.239 216.172 152.66 217.632 147.738C218.364 145.266 218.854 143.15 218.925 141.846C219.746 126.758 217.348 109.334 212.678 95.7198C207.905 81.8054 200.769 71.8962 192.338 72.2927C186.93 72.5436 184.211 81.1395 182.918 93.3161C180.6 115.123 182.87 148.596 180.167 160.348C178.784 166.37 176.793 171.428 174.532 176.074C169.174 187.083 162.33 195.824 158.095 208.992C146.062 246.411 141.409 280.011 142.617 313.517C143.706 343.722 149.431 374.032 159.129 406.702C160.055 409.818 161.038 412.925 162.045 416.072C162.202 416.586 162.538 416.747 162.792 416.428C163.048 416.112 163.128 415.437 162.969 414.923C162.023 411.723 161.123 408.539 160.229 405.407C150.922 372.799 144.977 343.177 143.908 313.328C142.725 280.333 147.344 247.269 159.202 210.43C163.39 197.414 170.179 188.818 175.478 177.936C177.845 173.076 179.922 167.77 181.372 161.469C184.1 149.615 181.885 115.87 184.226 93.8798C185.369 83.125 187.593 75.2107 192.368 74.9907C200.341 74.6221 207.049 84.1131 211.567 97.2624C216.06 110.34 218.399 127.058 217.621 141.561C217.404 145.622 212.373 158.133 211.004 164.04C210.576 165.892 210.536 167.336 210.735 168.036C212.089 172.896 213.782 177.524 215.695 181.997C222.786 198.572 232.836 213.106 238.537 231.258C250.222 268.416 253.983 310.581 251.732 351.918C249.928 385.059 244.185 417.584 235.705 446.76C233.591 454.036 231.334 461.139 228.891 467.96C228.7 468.483 228.756 469.22 229.016 469.605C229.275 469.989 229.642 469.877 229.833 469.354C232.369 462.564 234.759 455.526 236.933 448.219C245.663 418.869 251.321 385.771 253.147 352.228C255.432 310.262 251.601 267.459 239.736 229.734C233.989 211.48 223.929 196.766 216.738 180.185C214.881 175.904 213.209 171.508 211.872 166.868Z" fill="white"/>
<path fill-rule="evenodd" clip-rule="evenodd" d="M201.861 534.44C205.038 533.724 206.977 539.836 208.331 548.209C211.223 566.094 211.06 594.688 210.961 600.53C210.588 622.331 209.665 643.992 208.477 665.586C205.699 716.138 201.514 766.325 199.865 817.132C199.582 825.678 200.32 859.581 205.325 877.513C207.924 886.831 211.646 891.945 216.832 887.986C221.799 884.182 223.985 872.718 224.566 858.153C225.623 831.681 221.535 794.916 221.401 779.109C221.208 756.367 221.76 733.658 222.769 710.965C225.978 638.761 233.896 566.717 237.111 494.106C237.917 475.905 238.397 457.666 238.468 439.388C238.473 438.774 238.228 438.269 237.923 438.263C237.616 438.254 237.367 438.746 237.362 439.36C237.206 457.57 236.602 475.728 235.758 493.859C232.372 566.441 224.609 638.513 221.398 710.72C220.384 733.509 219.832 756.317 220.028 779.159C220.164 794.91 224.256 831.551 223.209 857.933C222.678 871.253 220.891 881.955 216.348 885.437C210.567 889.888 207.006 880.905 204.724 868.45C201.398 850.288 200.87 824.523 201.099 817.296C202.751 766.527 206.906 716.371 209.716 665.861C210.921 644.206 211.886 622.489 212.288 600.626C212.397 594.679 212.598 565.558 209.665 547.338C208.04 537.243 205.377 530.553 201.495 531.696C201.169 531.792 200.617 532.718 200.197 534.796C199.368 538.888 198.303 548.128 197.267 559.338C195.233 581.341 193.29 610.975 193.358 623.833C193.554 664.192 197.666 725.837 193.45 777.889C190.808 810.509 184.82 839.15 172.582 856.626C171.23 858.556 169.819 860.393 168.315 862.059C168.05 862.338 167.948 862.998 168.088 863.527C168.229 864.06 168.555 864.265 168.82 863.983C170.397 862.378 171.896 860.637 173.303 858.705C185.965 841.281 191.997 811.64 194.703 778.297C198.939 726.103 194.84 664.281 194.649 623.808C194.611 614.382 195.679 595.868 197.061 578.045C198.375 561.104 199.973 544.783 201.187 537.51C201.417 536.141 201.756 534.827 201.861 534.44Z" fill="white"/>
<path fill-rule="evenodd" clip-rule="evenodd" d="M294.515 147.257C293.729 146.947 292.954 146.312 292.168 145.495C290.587 143.853 288.989 141.328 287.454 137.995C281.016 124.007 275.498 96.9741 274.133 72.9802C272.788 49.3673 275.389 28.5795 285.517 27.0493C293.464 25.8567 298.174 31.0668 301.063 39.8361C304.498 50.2564 305.41 65.4903 306.182 80.6901C306.993 96.6489 307.649 112.574 310.625 123.226C317.343 147.26 330.509 163.179 339.351 184.038C341.593 189.332 343.553 194.948 345.041 201.115C351.81 229.157 353.47 267.422 352.202 307.48C350.601 358.135 344.289 411.645 337.592 451.143C336.962 454.863 336.289 458.431 335.696 461.916C335.429 463.493 335.198 465.057 334.948 466.584C334.831 467.197 334.984 467.882 335.287 468.117C335.591 468.35 335.933 468.046 336.05 467.433C336.374 465.952 336.716 464.459 337.024 462.904C337.706 459.46 338.309 455.814 338.947 452.072C345.704 412.386 352.026 358.581 353.636 307.663C354.922 267.059 353.193 228.281 346.329 199.857C344.787 193.47 342.762 187.653 340.439 182.173C331.652 161.453 318.537 145.708 311.856 121.835C308.951 111.471 308.357 95.9426 307.552 80.4052C306.742 64.7438 305.722 49.0824 302.171 38.3585C299.045 28.9078 293.992 23.137 285.42 24.4566C274.577 26.12 271.438 47.992 272.88 73.2683C274.282 97.8012 279.934 125.432 286.517 139.736C288.169 143.329 289.869 146.155 291.601 147.796C292.514 148.664 293.437 149.184 294.343 149.407C294.639 149.5 294.917 149.097 294.964 148.502C295.011 147.911 294.809 147.35 294.515 147.257Z" fill="white"/>
<path fill-rule="evenodd" clip-rule="evenodd" d="M295.567 643.958C299.016 651.513 300.896 662.553 302.021 674.525C303.708 692.476 303.679 712.523 304.417 726.562C306.287 762.153 307.486 798.122 308.141 834.147C308.798 870.159 308.912 906.228 308.619 942.02C308.483 958.518 308.295 974.997 308.172 991.486C308.092 1002.48 308.039 1013.48 308.055 1024.49L308.047 1054.88C308.032 1058.03 306.981 1063.99 307.064 1066.91C307.093 1067.97 307.264 1068.76 307.512 1069.24C307.808 1069.82 308.249 1070.15 308.905 1069.76C315.732 1065.82 320.317 1044.88 323.218 1017.72C328.581 967.489 328.605 896.123 329.048 877.302C329.321 865.665 329.387 854.04 329.326 842.42C329.081 796 326.806 749.725 327.793 703.342C329.666 615.027 333.559 524.906 334.617 435.162C335.254 381.162 335.047 327.258 332.403 274.041C332.107 268.094 331.745 262.162 331.375 256.237C331.341 255.611 331.061 255.159 330.75 255.227C330.438 255.295 330.213 255.862 330.247 256.487C330.531 262.419 330.765 268.357 331.016 274.299C333.26 327.481 333.808 381.202 333.164 435.094C332.09 524.819 328.221 614.921 326.35 703.218C325.367 749.654 327.648 795.982 327.897 842.451C327.96 854.015 327.897 865.584 327.626 877.166C327.185 895.928 327.181 967.058 321.84 1017.13C319.08 1043 315.023 1063.3 308.517 1067.06L308.488 1067.07C308.476 1066.94 308.462 1066.77 308.46 1066.63C308.454 1066.29 308.468 1065.9 308.493 1065.48C308.674 1062.32 309.434 1057.6 309.446 1054.91L309.451 1024.48C309.436 1013.49 309.485 1002.51 309.565 991.526C309.685 975.04 309.873 958.561 310.006 942.067C310.297 906.225 310.18 870.11 309.525 834.048C308.869 797.958 307.673 761.92 305.802 726.267C305.061 712.17 305.087 692.033 303.394 674.005C302.196 661.261 300.136 649.571 296.412 641.65C296.031 640.839 295.647 640.712 295.315 640.858C295.04 640.978 294.752 641.356 294.51 642.056C293.945 643.689 293.513 647.895 293.068 649.847C292.056 654.289 291.114 658.861 290.25 663.495C289.385 668.119 288.599 672.806 287.897 677.486C286.032 689.889 284.325 702.342 282.912 714.918C281.496 727.516 280.374 740.24 279.682 753.17L276.084 822.153C275.742 829.061 275.582 835.981 275.515 842.907C275.417 853.253 275.526 863.611 275.551 873.957C275.594 891.954 277.593 967.442 268.273 1012.84C264.039 1033.47 257.467 1047.87 247.138 1047.13C247.144 1047.05 247.152 1046.97 247.161 1046.9C247.215 1046.52 247.301 1046.09 247.406 1045.64C247.91 1043.44 248.78 1040.69 249.053 1038.88L252.002 1019.82C252.999 1012.98 253.733 1005.94 254.318 998.815C255.189 988.211 255.732 977.441 256.329 966.956C257.3 949.901 258.043 932.659 258.664 915.338C260.103 875.146 260.878 834.519 262.277 794.739C265.282 709.63 261.541 623.904 262.083 538.597C262.219 517.273 262.622 495.977 263.467 474.722C265.914 413.173 275.426 355.431 275.796 295.607C275.921 275.315 275.059 254.756 272.4 233.795C271.771 228.832 271.017 223.864 270.178 218.861C270.085 218.288 269.779 217.975 269.495 218.161C269.21 218.344 269.054 218.96 269.147 219.53C270.185 226.215 271.027 232.847 271.74 239.417C274.773 267.357 275.025 294.427 273.816 321.273C271.527 372.027 264.27 421.877 262.179 474.514C261.331 495.825 260.927 517.183 260.79 538.566C260.249 623.821 263.992 709.497 260.989 794.557C259.578 834.333 258.798 874.958 257.343 915.146C256.718 932.427 255.966 949.628 254.989 966.646C254.389 977.088 253.844 987.809 252.972 998.365C252.392 1005.38 251.668 1012.31 250.683 1019.04L247.728 1038.07C247.369 1040.44 245.973 1044.43 245.762 1046.66C245.578 1048.61 245.896 1049.83 246.973 1049.92C257.975 1050.83 265.085 1035.85 269.589 1013.93C278.993 968.176 277.012 892.084 276.967 873.945C276.942 863.617 276.831 853.284 276.93 842.963C276.995 836.111 277.152 829.265 277.489 822.435L281.083 753.473C281.767 740.652 282.879 728.033 284.283 715.54C285.688 703.026 287.385 690.639 289.239 678.301C289.932 673.68 290.709 669.052 291.561 664.483C292.415 659.914 293.342 655.401 294.341 651.018C294.734 649.292 295.083 645.659 295.567 643.958Z" fill="white"/>
<path fill-rule="evenodd" clip-rule="evenodd" d="M263.42 458.307C261.057 445.731 260.234 431.845 260.137 417.633C259.99 396.473 261.474 374.586 262.192 355.179C263.835 310.695 262.154 259.783 266.831 214.27C269.999 183.44 276.091 155.091 288.191 132.987C288.459 132.494 288.479 131.661 288.235 131.122C287.992 130.583 287.576 130.543 287.308 131.032C274.996 153.533 268.771 182.359 265.549 213.738C260.866 259.362 262.548 310.395 260.907 354.987C260.192 374.468 258.67 396.439 258.867 417.673C259.003 432.164 259.946 446.304 262.413 459.082C262.519 459.639 262.83 459.921 263.109 459.707C263.387 459.494 263.527 458.865 263.42 458.307Z" fill="white"/>
<path fill-rule="evenodd" clip-rule="evenodd" d="M396.727 21.6192C398.335 13.581 400.706 6.88398 403.922 2.64648C404.172 2.31814 404.243 1.64598 404.079 1.14418C403.917 0.642367 403.581 0.499864 403.332 0.825111C394.829 11.8835 391.752 39.3498 393.163 64.4123C394.752 92.6654 402.09 117.489 413.161 113.156C417.484 111.458 420.373 104.034 421.914 93.7C424.478 76.5084 423.358 51.2166 419.536 33.0462C414.994 11.4467 406.777 -0.290027 396.727 21.6192ZM396.57 22.4184C394.228 34.6353 393.612 49.8041 394.45 64.1119C396.002 90.6241 402.506 114.537 412.893 110.412C416.736 108.887 419.186 102.076 420.553 92.8792C423.031 76.2234 421.897 51.7742 418.246 34.1334C414.158 14.377 406.788 3.31868 397.51 23.1339C397.307 23.5738 396.963 23.5986 396.743 23.1866C396.632 22.979 396.573 22.7003 396.57 22.4184Z" fill="white"/>
<path fill-rule="evenodd" clip-rule="evenodd" d="M398.292 102.55C397.871 103.888 397.421 105.177 396.991 106.499C395.265 111.79 393.475 116.975 391.53 121.953C385.821 136.564 379.294 150.048 374.144 165.468C368.84 181.359 365.863 199.988 364.017 219.524C361.305 248.208 361.032 278.846 359.3 305.476C358.438 318.73 355.377 335.891 354.169 351.534C353.599 358.912 353.439 365.959 354.083 372.139C355.548 386.255 359.515 397.263 363.968 407.653C368.339 417.853 373.149 427.477 376.415 439.019C377.999 444.613 379.241 450.644 379.847 457.481C379.898 458.094 380.186 458.509 380.491 458.41C380.796 458.308 381.004 457.725 380.953 457.112C380.408 449.947 379.226 443.554 377.611 437.671C374.374 425.888 369.463 416.149 365.02 405.825C360.704 395.795 356.798 385.239 355.348 371.603C354.724 365.702 354.881 358.971 355.422 351.921C356.624 336.257 359.704 319.08 360.572 305.81C362.313 279.233 362.596 248.651 365.316 220.023C367.136 200.852 370.05 182.561 375.26 166.977C380.392 151.613 386.915 138.203 392.592 123.623C394.563 118.561 396.492 113.432 398.107 107.89C398.511 106.499 398.87 105.065 399.233 103.625C399.38 103.101 399.289 102.438 399.03 102.141C398.769 101.847 398.44 102.029 398.292 102.55Z" fill="white"/>
<path fill-rule="evenodd" clip-rule="evenodd" d="M373.451 200.722C373.445 213.53 374.191 226.918 375.336 240.783C377.715 269.553 381.741 300.414 383.577 332.747C384.196 343.647 384.57 354.715 384.555 365.922C384.535 379.96 383.965 393.9 383.087 407.783C381.031 440.255 377.291 472.411 374.941 504.743C373.138 529.568 371.684 554.512 370.42 579.504C368.528 616.966 367.069 654.536 365.514 691.983C364.176 724.189 363.559 757.228 363.523 790.266C363.488 823.308 364.035 856.353 365.026 888.571C365.13 891.979 365.422 919.566 367.708 936.342C369.175 947.107 371.659 953.24 375.003 948.59C382.319 938.446 386.7 922.193 389.209 904.013C392.941 876.974 392.543 845.695 391.859 824.47C390.885 794.281 390.771 764.43 391.34 734.618C391.908 704.807 393.16 675.033 394.921 644.999C395.736 631.103 396.624 592.303 401.732 566.447C404.136 554.274 407.435 544.95 412.253 543.045C413.811 542.429 415.222 544.049 416.541 546.985C418.065 550.38 419.437 555.5 420.671 561.525C425.229 583.772 427.838 618.208 428.371 626.661C429.447 643.683 430.109 660.753 430.522 677.849C432.182 746.696 429.79 815.914 433.863 883.767C434.244 890.108 439.574 916.36 444.46 934.633C446.343 941.68 448.166 947.546 449.605 950.684C450.599 952.852 451.53 953.735 452.181 953.537C454.422 952.856 456.131 949.222 457.354 944.142C459.663 934.558 460.302 919.814 460.421 913.649C460.672 900.606 460.451 887.493 460.012 874.344C458.998 844.01 456.818 813.498 456.61 783.303C456.209 724.455 456.396 664.749 455.474 605.338C454.858 565.602 453.747 525.993 451.633 486.858C451.13 477.568 450.449 468.359 449.656 459.2C446.486 422.611 441.529 386.834 439.204 349.92C437.589 324.306 438.601 297.379 438.133 271.195C437.99 263.188 437.754 255.233 437.168 247.443C436.915 244.054 436.567 240.715 436.188 237.394C436.125 236.734 435.808 236.304 435.479 236.431C435.151 236.558 434.937 237.196 435 237.856C435.261 241.164 435.439 244.5 435.624 247.848C436.049 255.577 436.339 263.404 436.462 271.309C436.874 297.596 435.942 324.625 437.57 350.338C439.913 387.299 444.885 423.122 448.07 459.754C448.861 468.846 449.54 477.987 450.041 487.208C452.161 526.259 453.283 565.784 453.91 605.437C454.849 664.83 454.678 724.514 455.097 783.346C455.309 813.594 457.498 844.158 458.518 874.549C458.955 887.59 459.177 900.596 458.932 913.535C458.833 918.674 458.376 930.002 456.815 938.947C455.775 944.901 454.305 949.876 451.959 950.591C451.791 950.641 451.622 950.347 451.395 949.993C451.038 949.436 450.643 948.603 450.217 947.549C448.445 943.176 446.201 935.212 443.993 926.316C439.769 909.294 435.67 888.856 435.345 883.408C431.293 815.623 433.704 746.476 432.063 677.7C431.653 660.524 430.992 643.37 429.915 626.268C429.377 617.709 426.735 582.849 422.126 560.32C420.52 552.471 418.659 546.106 416.594 542.692C415.147 540.298 413.592 539.278 411.948 539.926C406.667 542.007 402.889 551.929 400.254 565.267C395.093 591.392 394.18 630.589 393.358 644.63C391.6 674.748 390.352 704.606 389.791 734.501C389.229 764.417 389.355 794.374 390.343 824.668C391.025 845.627 391.42 876.497 387.773 903.214C385.379 920.743 381.251 936.5 374.226 946.338C372.838 948.284 371.735 947.308 370.847 944.678C370.111 942.5 369.511 939.338 369.004 935.627C366.741 919.049 366.469 891.771 366.365 888.404C365.374 856.242 364.825 823.256 364.861 790.273C364.895 757.305 365.512 724.344 366.847 692.209C368.402 654.778 369.861 617.223 371.752 579.776C373.014 554.822 374.465 529.918 376.266 505.131C378.616 472.786 382.358 440.611 384.415 408.124C385.301 394.129 385.874 380.078 385.893 365.928C385.916 348.879 385.045 332.152 383.78 315.837C381.92 291.874 379.233 268.794 377.216 246.904C375.735 230.833 374.607 215.41 374.531 200.712C374.53 200.111 374.288 199.628 373.989 199.631C373.69 199.631 373.45 200.121 373.451 200.722Z" fill="white"/>
<path fill-rule="evenodd" clip-rule="evenodd" d="M415.077 104.805C415.125 106.292 415.167 107.747 415.242 109.172C416.063 124.707 418.008 136.862 420.346 147.211C427.404 178.453 439.393 192.764 447.883 231.837C452.016 250.831 454.183 272.251 455.121 294.312C456.224 320.22 455.529 346.996 454.486 371.832C454.207 378.442 453.944 384.919 453.634 391.204C453.597 391.849 453.827 392.434 454.147 392.509C454.469 392.583 454.759 392.121 454.796 391.474C455.21 385.195 455.634 378.73 455.969 372.108C457.226 347.138 457.733 320.14 456.619 294.052C455.663 271.659 453.437 249.924 449.232 230.65C440.693 191.581 428.713 177.282 421.589 146.068C419.278 135.948 417.621 123.988 416.489 108.853C416.384 107.45 416.259 106.035 416.154 104.579C416.123 103.984 415.857 103.547 415.559 103.609C415.262 103.671 415.046 104.207 415.077 104.805Z" fill="white"/>
<path fill-rule="evenodd" clip-rule="evenodd" d="M486.083 259.526C493.508 329.374 499.59 402.241 503.173 475.48C506.756 548.763 507.834 622.424 505.084 693.845C503.7 729.811 501.003 765.284 499.455 801.049C498.789 816.391 498.336 831.79 498.284 847.299C498.26 854.699 498.316 860.709 498.823 866.513C499.336 872.39 500.307 878.061 502.125 884.733C502.503 886.118 508.427 905.274 512.771 913.361C513.828 915.331 514.816 916.657 515.619 917.085C516.382 917.494 517.026 917.212 517.531 916.248C520.639 910.304 521.806 898.561 521.903 884.625C522.083 858.72 518.716 825.12 518.863 809.168C519.268 765.226 518.987 673.202 521.425 599.966C522.664 562.705 524.593 530.32 527.723 511.688C527.84 510.991 527.654 510.235 527.307 510C526.962 509.761 526.584 510.136 526.467 510.833C523.294 529.598 521.279 562.222 520.007 599.774C517.528 673.054 517.841 765.142 517.434 809.115C517.288 825.068 520.653 858.677 520.471 884.585C520.38 897.582 519.442 908.616 516.543 914.161C516.289 914.644 515.939 914.356 515.516 913.922C514.574 912.956 513.446 910.834 512.254 908.179C508.27 899.317 503.709 884.545 503.384 883.349C501.654 876.999 500.724 871.606 500.236 866.015C499.743 860.365 499.695 854.52 499.72 847.321C499.771 831.886 500.222 816.565 500.883 801.3C502.433 765.526 505.13 730.043 506.515 694.068C509.267 622.483 508.235 548.639 504.584 475.199C500.939 401.876 494.682 328.959 487.141 259.068C487.078 258.479 486.79 258.107 486.499 258.231C486.206 258.358 486.019 258.938 486.083 259.526Z" fill="white"/>
<path fill-rule="evenodd" clip-rule="evenodd" d="M543.559 874.942C543.356 874.375 542.909 873.077 542.595 871.755C541.727 868.096 540.79 863.063 539.955 860.647C538.605 856.747 537.111 853.079 535.531 849.557C533.414 844.84 531.144 840.385 528.875 835.971C528.648 835.531 528.486 834.893 528.195 834.652C528.135 834.602 528.116 834.649 528.052 834.649C527.836 834.231 527.492 834.24 527.284 834.673C527.075 835.107 527.081 835.798 527.297 836.216C527.3 836.349 527.277 836.383 527.303 836.504C527.432 837.08 527.754 837.387 527.981 837.827C530.226 842.207 532.469 846.63 534.564 851.307C536.106 854.752 537.567 858.333 538.884 862.143C539.963 865.259 541.197 872.83 542.25 875.921C542.75 877.395 543.325 877.959 543.761 877.817C544.093 877.708 544.472 877.237 544.757 875.995C547.728 863.05 548.974 846.835 549.287 829.293C549.948 792.209 546.439 749.146 546.577 718.932C546.928 641.093 546.165 562.597 546.584 484.426C546.763 450.87 547.161 417.373 547.959 384.015C548.598 357.292 547.852 328.085 548.8 299.755C549.433 280.794 550.826 262.227 553.919 245.076C554.048 244.354 553.864 243.555 553.504 243.295C553.145 243.032 552.748 243.406 552.618 244.128C549.484 261.521 548.067 280.345 547.427 299.569C546.483 327.918 547.231 357.144 546.595 383.882C545.801 417.277 545.407 450.805 545.231 484.395C544.821 562.569 545.593 641.068 545.251 718.911C545.119 749.103 548.634 792.137 547.977 829.2C547.672 846.361 546.475 862.233 543.57 874.896L543.559 874.942Z" fill="white"/>
<path fill-rule="evenodd" clip-rule="evenodd" d="M500.431 421.171C500.197 420.48 499.98 419.78 499.722 419.12C499.339 418.144 498.903 417.261 498.487 416.345C492.277 402.666 485.155 390.718 479.393 376.426C476.706 369.76 474.316 362.583 472.462 354.464C465.047 322.008 466.027 293.181 471.027 266.298C478.743 224.815 495.946 187.922 506.888 149.519C508.752 142.973 508.846 134.241 508.422 124.942C507.861 112.626 506.398 99.2913 507.47 89.1219C508.268 81.5514 510.558 75.8766 515.866 73.953C521.814 71.7971 527.496 74.3061 532.365 79.919C537.261 85.5659 541.336 94.3506 544.048 104.703C546.757 115.046 547.175 121.65 545.995 127.111C544.686 133.16 541.53 137.754 537.684 144.287C537.231 145.058 536.752 145.817 536.596 146.74C536.495 147.347 536.486 148.032 536.654 148.831C544.298 184.97 561.077 193.021 570.534 223.405C575.041 237.883 577.831 257.531 577.11 287.965C576.688 305.807 574.179 321.67 570.719 336.703C566.481 355.112 560.73 372.176 555.765 390.257C554.528 394.761 553.374 399.361 552.268 404.019C552.121 404.599 552.238 405.308 552.528 405.599C552.816 405.893 553.169 405.658 553.314 405.076C554.503 400.55 555.781 396.136 557.052 391.719C562.214 373.768 567.802 356.425 572.053 337.945C575.588 322.574 578.141 306.346 578.57 288.105C579.305 256.865 576.391 236.719 571.762 221.86C562.341 191.612 545.589 183.685 537.971 147.703L538.609 146.483C542.662 139.594 545.925 134.632 547.303 128.254C548.609 122.204 548.311 114.829 545.307 103.371C542.467 92.5354 538.194 83.3573 533.069 77.4502C527.918 71.5121 521.907 68.8761 515.615 71.1621C509.569 73.3583 507.002 79.9097 506.094 88.5333C504.998 98.9443 506.452 112.595 507.028 125.199C507.424 133.867 507.412 142.022 505.675 148.125C494.704 186.659 477.473 223.709 469.739 265.331C464.623 292.862 463.628 322.379 471.225 355.607C473.129 363.937 475.579 371.306 478.339 378.145C484.121 392.475 491.261 404.459 497.491 418.169C497.903 419.074 498.286 420.028 498.711 420.904C498.998 421.496 499.308 422.016 499.607 422.583C499.801 423.042 500.143 423.097 500.371 422.707C500.599 422.317 500.625 421.629 500.431 421.171Z" fill="white"/>
<path fill-rule="evenodd" clip-rule="evenodd" d="M622.17 158.536C611.779 158.629 605.53 136.01 603.946 112.821C602.248 87.9355 605.848 61.9715 616.156 62.7459C628.274 63.6535 633.63 75.1145 636.025 90.8874C639.735 115.334 636.578 149.723 640.016 171.799C651.03 242.558 672.54 265.052 678.503 309.865C681.693 333.843 680.359 364.249 670.523 412.095C670.372 412.829 670.546 413.668 670.911 413.972C671.276 414.275 671.694 413.925 671.845 413.191C681.824 364.497 683.086 333.54 679.829 309.153C673.836 264.309 652.308 241.823 641.249 171.025C637.802 148.961 640.943 114.581 637.222 90.1502C634.68 73.4511 629.037 61.2157 616.203 60.2771C605.225 59.4748 600.924 86.6623 602.763 113.153C604.451 137.497 611.262 160.887 622.177 160.713C622.476 160.71 622.718 160.218 622.716 159.617C622.714 159.016 622.469 158.532 622.17 158.536Z" fill="white"/>
<path fill-rule="evenodd" clip-rule="evenodd" d="M597.001 412.928C596.239 410.744 595.517 408.585 594.791 406.494C586.701 383.203 581.487 364.584 579.235 344.434C576.802 322.655 577.661 299.346 581.323 267.478C582.36 258.451 583.155 246.968 584.51 236.3C585.419 229.148 586.575 222.358 588.264 216.971C590.49 209.915 593.324 207.505 596.344 205.783C599.617 203.921 603.101 202.822 606.352 198.175C609.043 194.334 611.733 188.195 613.698 176.994C613.852 176.114 613.98 175.194 614.114 174.25C614.216 173.664 614.062 173.026 613.772 172.822C613.481 172.617 613.163 172.927 613.062 173.509C612.88 174.395 612.684 175.238 612.51 176.071C610.359 186.386 608.121 192.392 605.587 196.007C602.468 200.458 599.126 201.487 595.991 203.283C592.689 205.176 589.609 207.868 587.176 215.584C585.82 219.849 584.769 224.96 583.927 230.452C582.084 242.477 581.222 256.342 580.012 266.867C576.297 299.231 575.451 322.912 577.932 345.022C580.225 365.476 585.216 384.817 593.745 408.006C594.503 410.063 595.312 412.113 596.135 414.223C596.312 414.703 596.651 414.802 596.89 414.446C597.128 414.089 597.179 413.408 597.001 412.928Z" fill="white"/>
<path fill-rule="evenodd" clip-rule="evenodd" d="M629.791 567.513C632.699 585.708 634.09 608.522 634.656 633.241C635.918 688.471 633.056 753.145 633.628 797.252L633.719 805.349C633.819 815.351 633.827 824.739 633.634 834.06C633.44 843.455 633.041 852.779 632.33 862.589C632.292 863.109 631.834 867.164 631.732 869.571C631.669 871.027 631.854 872.068 632.018 872.356C633.794 875.509 638.403 873.762 643.234 869.4C648.952 864.234 655.01 855.784 656.885 849.703C659.736 840.407 660.922 829.095 661.289 817.231C661.814 800.191 660.652 782.005 660.489 767.205C660.005 722.055 660.112 676.947 660.495 631.862C661.389 526.544 663.771 421.344 663.515 315.955C663.514 315.199 663.207 314.586 662.83 314.592C662.454 314.595 662.15 315.212 662.152 315.967C662.418 421.335 660.056 526.52 659.159 631.816C658.776 676.935 658.657 722.079 659.136 767.264C659.287 781.993 660.437 800.098 659.903 817.057C659.546 828.441 658.432 839.307 655.692 848.222C653.919 854.03 648.123 862.007 642.688 866.975C640.061 869.376 637.517 871.076 635.542 871.432C634.463 871.631 633.571 871.467 632.991 870.64C632.987 870.605 632.984 870.571 632.982 870.54C632.971 868.505 633.548 863.531 633.589 862.961C634.307 853.058 634.71 843.647 634.905 834.165C635.099 824.795 635.092 815.354 634.991 805.296L634.899 797.186C634.33 753.068 637.183 688.371 635.931 633.123C635.332 606.676 633.794 582.388 630.501 563.505C630.284 562.25 629.891 561.999 629.686 561.984C629.466 561.965 629.19 562.132 628.979 562.786C628.563 564.068 628.165 570.806 627.869 573.51C627.45 577.363 627.053 581.201 626.603 585.017C626.305 587.539 625.983 590.054 625.615 592.554C624.449 600.558 623.527 608.686 622.774 616.885C621.646 629.146 620.894 641.561 620.239 653.926C617.994 696.354 618.729 741.071 617.59 784.477C617.095 803.304 616.248 821.887 614.645 839.924C613.739 850.143 609.965 860.867 605.07 867.824C600.392 874.471 594.661 877.705 589.331 873.434C589.413 872.656 589.571 871.457 589.782 869.939C591.31 859.002 595.575 832.356 595.886 828.404C596.621 819.074 596.957 809.543 597.065 799.925C597.313 777.83 596.361 755.261 596.333 733.584C596.242 658.982 596.375 584.385 596.353 509.789C596.344 477.816 596.307 445.843 596.213 413.87C596.117 382.101 594.385 346.11 594.789 311.395C595.06 287.897 596.304 264.981 599.765 244.367C599.86 243.8 599.709 243.183 599.427 242.991C599.145 242.796 598.838 243.1 598.743 243.667C595.2 264.461 593.858 287.597 593.555 311.336C593.112 346.073 594.877 382.091 594.968 413.885C595.06 445.852 595.096 477.822 595.103 509.789C595.12 584.389 594.988 658.988 595.077 733.59C595.102 755.245 596.053 777.792 595.803 799.866C595.695 809.372 595.364 818.789 594.638 828.008C594.328 831.932 590.078 858.388 588.562 869.252C588.271 871.327 588.08 872.857 588.024 873.591C587.933 874.793 588.294 875.323 588.397 875.416C594.262 880.713 600.694 877.529 605.904 870.209C611.141 862.849 615.112 851.326 616.08 840.438C617.69 822.283 618.544 803.58 619.038 784.632C620.171 741.272 619.427 696.611 621.663 654.233C622.311 641.939 623.06 629.595 624.174 617.406C624.917 609.299 625.82 601.261 626.966 593.35C627.335 590.794 627.654 588.226 627.949 585.649C628.389 581.811 628.774 577.955 629.184 574.08C629.33 572.701 629.589 569.811 629.791 567.513Z" fill="white"/>
<path fill-rule="evenodd" clip-rule="evenodd" d="M720.416 454.652C718.707 451.707 717.095 448.659 715.531 445.611C699.914 415.165 691.912 378.467 690.937 339.648C689.886 297.837 696.794 253.966 710.274 214.395C716.068 197.386 726.913 191.333 734.163 177.539C736.027 173.993 737.661 169.95 738.932 165.124C742.716 150.748 742.873 132.287 742.835 114.342C742.795 95.4193 742.502 77.0692 746.401 65.0971C749.444 55.7548 755.084 50.5353 765.382 51.9447C769.656 52.5333 773.045 56.1265 775.713 61.4048C779.805 69.5018 782.215 81.5267 783.486 93.0001C783.937 97.0611 784.033 102.113 783.922 107.655C783.469 130.184 779.723 160.605 781.242 168.268C782.372 174.052 784.353 178.692 786.75 182.771C791.833 191.435 798.837 197.485 802.861 207.611C807.07 218.136 810.267 230.706 812.81 244.054C816.609 264.005 818.938 285.685 820.915 304.946C823.266 327.847 825.254 353.671 824.035 378.099C823.222 394.405 820.978 410.088 816.434 423.825C813.586 432.458 809.483 438.706 806.367 446.605C804.996 450.084 803.837 453.894 802.994 458.236C802.875 458.8 803.006 459.451 803.287 459.689C803.567 459.928 803.891 459.664 804.009 459.101C804.923 455.095 806.167 451.701 807.515 448.491C810.782 440.71 814.819 434.236 817.711 425.535C822.405 411.379 824.742 395.225 825.591 378.415C826.841 353.671 824.858 327.5 822.49 304.296C820.505 284.868 818.163 263.002 814.338 242.877C811.739 229.201 808.453 216.327 804.145 205.538C800.032 195.292 792.942 189.115 787.748 180.386C785.534 176.666 783.672 172.469 782.611 167.172C781.124 159.657 784.962 129.864 785.42 107.779C785.54 101.94 785.434 96.6212 784.961 92.3404C783.629 80.3031 781.076 67.7053 776.775 59.2334C773.857 53.4842 770.143 49.6184 765.477 49.0237C754.456 47.6081 748.504 53.5864 745.259 63.5978C741.251 75.9634 741.437 94.837 741.474 114.355C741.508 131.831 741.399 149.825 737.705 163.817C736.506 168.361 734.961 172.162 733.204 175.501C725.883 189.422 714.981 195.654 709.138 212.83C695.492 252.944 688.539 297.419 689.607 339.782C690.604 379.267 698.401 417.277 714.599 447.587C716.214 450.61 717.938 453.491 719.73 456.328C719.962 456.709 720.301 456.641 720.49 456.18C720.68 455.718 720.646 455.034 720.416 454.652Z" fill="white"/>
<path fill-rule="evenodd" clip-rule="evenodd" d="M771.696 593.913C771.745 594.403 771.799 595.026 771.819 595.58C771.926 598.464 771.872 602.311 772.055 604.393C772.314 607.351 772.436 610.328 772.485 613.314C772.561 617.867 772.467 622.442 772.425 627.005C772.311 639.228 771.97 651.333 771.369 663.386C770.768 675.433 769.91 687.426 768.762 699.433C765.824 730.201 761.139 788.634 759.535 841.277C758.329 880.917 758.894 917.286 763.173 936.271C765.856 948.163 771.131 971.556 777.686 984.333C781.145 991.077 784.971 994.871 788.948 992.979C789.318 992.802 789.676 992.272 789.971 991.324C790.4 989.946 790.74 987.477 790.978 984.37C791.811 973.454 791.569 954.231 791.663 950.526C792.124 932.396 792.478 914.253 792.765 896.102C793.195 868.883 793.471 841.652 793.72 814.437C794.394 741.436 794.784 668.138 795.502 594.911C795.982 546.081 796.608 497.281 797.563 448.627C798.58 395.91 802.325 343.325 802.504 290.651C802.579 268.072 801.989 245.475 800.276 222.851C800.232 222.256 799.957 221.847 799.662 221.937C799.366 222.027 799.163 222.578 799.208 223.173C801.411 253.235 801.596 283.223 800.95 313.192C799.978 358.296 797.109 403.356 796.209 448.522C795.257 497.191 794.633 546.009 794.158 594.858C793.445 668.085 793.066 741.386 792.403 814.39C792.155 841.593 791.882 868.812 791.455 896.018C791.17 914.151 790.819 932.281 790.36 950.393C790.277 953.639 790.461 968.861 789.939 979.857C789.777 983.258 789.551 986.241 789.221 988.301C789.039 989.432 788.93 990.299 788.649 990.432C784.044 992.604 779.757 985.981 776.003 976.598C770.809 963.613 766.697 945.177 764.441 935.116C760.238 916.391 759.785 880.53 760.991 841.457C762.612 788.956 767.28 730.681 770.215 699.997C771.373 687.9 772.239 675.817 772.844 663.684C773.45 651.55 773.795 639.368 773.91 627.061C773.954 622.445 774.048 617.821 773.972 613.215C773.92 610.089 773.792 606.97 773.521 603.872C773.282 601.156 773.45 595.406 773.126 592.792C772.938 591.284 772.517 590.525 772.118 590.367C771.822 590.249 771.43 590.361 770.992 591.15C765.677 600.778 762.705 614.116 760.974 628.752C758.498 649.713 758.577 673.345 757.779 692.2C756.53 721.76 756.013 814.808 752.284 885.387C750.336 922.251 747.555 952.955 743.268 964.989C741.007 971.351 734.158 985.699 727.518 994.174C722.593 1000.46 717.816 1003.83 715.336 996.931C713.735 992.452 713.57 986.539 714.001 980.381C714.656 971.048 716.701 961.154 717.727 954.349C720.602 935.255 722.186 916.735 723.126 898.192C724.533 870.423 724.498 842.606 725.276 812.739C726.444 767.827 726.723 722.974 726.613 678.124C726.449 610.901 725.413 543.683 725.21 476.286C725.102 440.701 726.341 401.309 725.445 363.181C725.085 347.817 724.396 332.648 723.1 318.03C722.476 310.983 721.738 304.048 720.78 297.314C720.362 294.38 719.884 291.499 719.391 288.643C719.288 287.999 718.946 287.64 718.624 287.844C718.303 288.049 718.125 288.739 718.226 289.387C718.635 292.255 718.995 295.161 719.357 298.079C720.192 304.788 720.934 311.618 721.528 318.582C722.767 333.084 723.478 348.105 723.834 363.332C724.724 401.417 723.502 440.763 723.616 476.308C723.834 543.702 724.881 610.919 725.062 678.14C725.182 722.931 724.919 767.728 723.763 812.581C722.995 842.399 723.026 870.162 721.641 897.892C720.724 916.254 719.188 934.601 716.365 953.521C715.334 960.441 713.285 970.512 712.636 980C712.163 986.907 712.439 993.508 714.241 998.52C716.544 1004.94 720.562 1004.45 725.017 1000.14C732.699 992.728 741.741 974.226 744.44 966.677C748.806 954.429 751.744 923.224 753.734 885.697C757.477 815.1 758.014 722.023 759.269 692.454C760.059 673.732 759.968 650.262 762.426 629.443C764.05 615.689 766.788 603.098 771.696 593.913Z" fill="white"/>
<path fill-rule="evenodd" clip-rule="evenodd" d="M873.706 955.036C873.516 954.522 873.333 953.989 873.265 953.714C872.621 951.096 872.024 948.386 871.465 945.635C870.622 941.497 869.859 937.272 869.132 933.136C868.148 927.502 868.054 921.434 868.337 915.273C868.765 905.949 870.047 896.408 870.53 887.754L870.784 882.367C871.832 856.948 872.553 831.644 873.061 806.309C873.568 780.999 873.864 755.663 874.097 730.164C874.508 684.942 874.068 639.925 873.185 594.998C871.328 500.49 867.668 406.38 865.574 311.659C865.341 301.17 865.1 290.676 864.901 280.172C864.891 279.571 864.642 279.1 864.345 279.118C864.046 279.137 863.811 279.639 863.821 280.237C863.95 290.756 864.09 301.266 864.288 311.764C866.064 406.51 870.02 500.596 871.869 595.103C872.747 639.978 873.186 684.945 872.773 730.118C872.497 760.703 872.117 791.053 871.422 821.413C870.96 841.637 870.36 861.864 869.545 882.162L869.3 887.481C868.745 897.619 867.107 908.972 866.995 919.776C866.944 924.658 867.2 929.432 867.989 933.942C868.715 938.123 869.476 942.392 870.317 946.574C870.883 949.383 871.484 952.152 872.135 954.829C872.279 955.417 872.853 956.991 873.103 957.657C873.151 957.781 873.225 957.883 873.203 957.917C872.679 958.729 874.216 957.939 874.213 957.945C876.786 951.217 878.187 942.479 878.881 932.854C880.344 912.562 878.666 888.274 878.629 871.086C878.558 837.371 878.915 803.818 879.707 770.318C880.498 736.793 881.723 703.323 883.384 669.801C883.911 659.161 885.719 626.578 890.429 606.465C892.771 596.469 895.772 589.493 899.841 590.717C903.225 591.733 905.456 597.86 907.033 605.942C910.427 623.341 910.661 649.85 911.114 659.338C911.794 673.509 912.278 687.699 912.646 701.902C914.121 758.801 913.725 815.902 916.38 872.724C916.822 882.203 917.409 892.149 917.472 901.99C917.515 908.517 917.327 914.997 916.708 921.257C916.067 927.75 912.198 937.541 911.666 943.355C911.383 946.45 911.837 948.674 913.532 949.563C929.296 957.325 936.926 942.841 940.229 920.449C944.819 889.321 940.816 842.408 938.919 820.081C933.082 751.392 931.2 679.128 931.67 606.137C932.37 497.545 938.27 387.345 944.099 284.892C944.144 284.102 943.86 283.387 943.468 283.297C943.075 283.207 942.72 283.774 942.674 284.564C936.837 387.11 930.931 497.408 930.226 606.1C929.753 679.271 931.639 751.711 937.487 820.573C939.359 842.606 943.354 888.894 938.834 919.618C935.754 940.558 928.608 954.026 913.868 946.806C912.574 946.199 912.816 943.953 913.367 941.175C914.54 935.286 917.448 927.331 917.998 921.774C918.634 915.331 918.83 908.669 918.787 901.953C918.722 892.044 918.135 882.026 917.688 872.476C915.036 815.691 915.434 758.628 913.962 701.765C913.594 687.523 913.107 673.292 912.427 659.084C911.967 649.469 911.7 622.61 908.261 604.975C906.487 595.878 903.844 589.236 900.037 588.093C895.454 586.718 891.875 594.081 889.24 605.341C884.467 625.732 882.618 658.755 882.085 669.541C880.427 703.11 879.207 736.625 878.419 770.197C877.632 803.741 877.279 837.34 877.356 871.098C877.388 885.793 878.636 905.704 878.066 923.828C877.692 935.689 876.547 946.778 873.706 955.036ZM874.075 956.037L874.108 956.124C874.152 956.241 874.182 956.399 874.202 956.368C874.407 956.052 874.29 955.993 874.075 956.037Z" fill="white"/>
<path fill-rule="evenodd" clip-rule="evenodd" d="M871.3 426.046C871.357 425.826 871.397 425.9 871.401 425.653C871.407 425.299 871.259 425.005 871.184 424.686C870.327 421.074 869.296 417.692 868.21 414.405C863.422 399.906 857.062 387.747 853.047 372.455C848.358 354.594 846.794 331.294 847.21 307.046C847.816 271.743 852.633 234.42 858.287 208.735C860.308 199.551 864.486 194.241 868.877 189.428C873.506 184.357 878.38 179.834 881.522 172.471C883.159 168.634 884.337 164.04 884.792 158.235C885.139 153.818 884.761 149.627 884.034 145.554C882.468 136.784 879.191 128.597 878.751 119.636C878.212 108.59 881.032 83.1 885.951 63.4365C889.408 49.6089 893.852 38.5536 899.016 38.0425C904.476 37.5097 909.482 41.4189 913.478 47.9765C917.506 54.5836 920.507 63.8733 921.923 74.0334C924.618 93.384 919.785 117.582 920.438 137.698C920.624 143.438 921.242 148.856 922.554 153.771C934.926 200.028 953.406 229.947 966.089 271.179C971.206 287.813 975.373 306.303 977.788 328.509C980.139 350.103 979.754 365.107 977.802 376.844C975.221 392.354 969.909 402.123 964.702 413.876C958.417 428.056 952.25 444.982 950.797 477.19C950.766 477.841 951.005 478.423 951.329 478.485C951.654 478.547 951.944 478.07 951.974 477.416C953.566 446.044 959.696 429.726 965.872 415.982C971.27 403.97 976.681 393.834 979.347 377.885C981.378 365.73 981.819 350.18 979.386 327.806C976.923 305.209 972.683 286.388 967.468 269.466C954.783 228.302 936.297 198.473 923.916 152.297C922.701 147.778 922.139 142.781 921.96 137.494C921.276 117.201 926.061 92.7582 923.318 73.2435C921.811 62.5258 918.627 52.7344 914.37 45.7772C910.104 38.8076 904.765 34.6723 898.948 35.2578C893.393 35.8092 888.432 47.3136 884.712 62.1851C879.662 82.372 876.815 108.568 877.369 119.912C877.816 129.09 881.118 137.518 882.719 146.501C883.367 150.132 883.721 153.861 883.411 157.795C882.998 163.033 881.935 167.175 880.457 170.635C877.419 177.753 872.68 182.043 868.204 186.94C863.532 192.054 859.145 197.819 856.992 207.583C851.269 233.54 846.389 271.26 845.768 306.944C845.335 331.743 846.964 355.554 851.753 373.824C855.291 387.323 860.624 398.425 865.142 410.775C866.837 415.412 868.415 420.226 869.731 425.427C869.845 425.879 869.88 426.455 870.07 426.799C870.164 426.969 870.206 426.892 870.324 426.978C870.452 427.517 870.776 427.75 871.044 427.493C871.313 427.232 871.427 426.585 871.3 426.046Z" fill="white"/>
<path fill-rule="evenodd" clip-rule="evenodd" d="M1014.22 303.032C1015.69 346.674 1014.98 388.987 1013.3 430.931C1010.76 494.388 1006 557.012 1003.09 622.108C1002.02 645.975 1001.5 669.873 1001.26 693.783C1000.68 749.505 1001.57 805.315 1000.36 861.04C999.84 884.823 993.718 949.238 994.465 997.504C994.863 1023.15 997.261 1044.25 1003.28 1052.73C1006.49 1057.25 1009.71 1053.86 1012.52 1046.69C1017.54 1033.91 1021.36 1009.18 1021.97 1003.67C1025.13 975.257 1027.68 946.769 1029.93 918.2C1033.3 875.348 1035.97 832.322 1038.91 789.096C1041.87 745.413 1042.2 699.529 1044.56 654.927C1045.57 635.672 1046.96 616.653 1049.13 598.16C1049.21 597.51 1049 596.856 1048.68 596.705C1048.36 596.55 1048.03 596.952 1047.96 597.603C1045.75 616.182 1044.31 635.294 1043.28 654.651C1040.89 699.222 1040.6 745.088 1037.63 788.746C1034.7 831.957 1032.04 874.967 1028.68 917.803C1026.44 946.32 1023.89 974.756 1020.75 1003.12C1020.15 1008.5 1016.44 1032.66 1011.55 1045.15C1009.22 1051.11 1006.65 1054.47 1003.98 1050.73C998.175 1042.57 996.04 1022.13 995.652 997.43C994.894 949.228 1001.03 884.898 1001.54 861.146C1002.76 805.401 1001.87 749.574 1002.44 693.832C1002.69 669.975 1003.2 646.136 1004.27 622.322C1007.19 557.22 1011.97 494.593 1014.49 431.12C1016.15 389.064 1016.81 346.637 1015.3 302.883C1015.28 302.285 1015.02 301.833 1014.73 301.873C1014.43 301.914 1014.2 302.434 1014.22 303.032Z" fill="white"/>
<path fill-rule="evenodd" clip-rule="evenodd" d="M1026.44 987.043C1026.19 991.011 1025.05 1025.11 1026.31 1048.6C1026.73 1056.25 1027.4 1062.79 1028.43 1066.87C1029.34 1070.51 1030.55 1072.29 1032.01 1071.86C1040.58 1069.3 1045.94 1052.83 1049.31 1030.53C1055.61 988.828 1055.05 926.768 1057.03 901.662C1064.12 811.959 1070.82 722.209 1077.79 632.528C1080.78 594.099 1083.83 555.683 1086.97 517.285C1089.68 484.274 1094.38 443.907 1095.98 404.806C1096.85 383.696 1096.89 362.923 1095.09 343.92C1094.61 338.83 1093.97 333.88 1093.22 329.076C1093.13 328.475 1092.81 328.134 1092.51 328.314C1092.21 328.494 1092.04 329.129 1092.13 329.73C1092.8 334.491 1093.32 339.397 1093.76 344.409C1095.4 363.242 1095.51 383.721 1094.66 404.589C1093.07 443.616 1088.4 483.915 1085.71 516.87C1082.58 555.277 1079.55 593.706 1076.56 632.144C1069.6 721.825 1062.89 811.568 1055.8 901.271C1053.83 926.309 1054.39 988.205 1048.12 1029.81C1044.92 1051.03 1039.98 1066.98 1031.83 1069.43C1030.85 1069.73 1030.13 1068.23 1029.51 1065.77C1028.53 1061.88 1027.91 1055.63 1027.51 1048.34C1026.22 1025.06 1027.27 991.253 1027.52 987.316C1027.55 986.721 1027.34 986.176 1027.05 986.102C1026.75 986.024 1026.48 986.449 1026.44 987.043Z" fill="white"/>
<path fill-rule="evenodd" clip-rule="evenodd" d="M1011.06 556.842C996.896 514.798 990.432 459.457 989.945 403.26C989.461 347.485 994.869 290.852 1004.59 245.516C1008.28 228.284 1017.3 220.599 1022.93 206.48C1024.36 202.915 1025.57 198.962 1026.45 194.381C1029.69 177.487 1023.3 123.332 1028.53 94.8586C1030.86 82.1554 1035.65 74.935 1044.93 79.2282C1054.52 83.6795 1058.63 92.7058 1059.91 104.232C1061.8 121.253 1057.78 143.323 1056.07 163.427C1054.76 178.794 1054.81 193.03 1059.41 203.308C1078.77 246.634 1096.48 286.184 1104.63 334.565C1109.76 365.076 1111.09 399.11 1106.59 439.861C1102.11 480.527 1095.7 532.309 1088.56 580.752C1086.21 596.701 1083.76 612.27 1081.32 626.996C1078.59 643.506 1075.87 658.951 1073.12 672.543C1072.99 673.168 1073.14 673.89 1073.45 674.15C1073.77 674.411 1074.12 674.113 1074.25 673.484C1077.11 659.929 1080.03 644.553 1082.84 628.024C1085.34 613.305 1087.76 597.668 1090.12 581.684C1097.29 533.173 1103.72 481.31 1108.22 440.583C1112.79 399.138 1111.45 364.513 1106.22 333.484C1097.99 284.707 1080.13 244.831 1060.58 201.193C1055.32 189.425 1056.64 172.085 1058.61 154.109C1060.55 136.431 1063.17 118.134 1061.53 103.501C1060.13 90.9712 1055.72 80.9412 1045.27 76.2328C1034.99 71.5896 1029.76 79.8044 1027.2 93.8736C1022 122.365 1028.37 176.468 1025.13 193.356C1024.3 197.652 1023.16 201.357 1021.83 204.696C1016.12 219.013 1007.03 226.915 1003.29 244.388C993.519 290.075 988.07 347.129 988.616 403.31C989.166 459.983 995.816 515.749 1010.17 558.062C1010.33 558.558 1010.67 558.688 1010.92 558.35C1011.17 558.013 1011.23 557.337 1011.06 556.842Z" fill="white"/>
</g>
</svg>
